<mxfile host="65bd71144e">
    <diagram id="3AL5lcRK7GqpQMIHJLG4" name="Page-1">
        <mxGraphModel dx="1158" dy="655" grid="1" gridSize="10" guides="1" tooltips="1" connect="1" arrows="1" fold="1" page="1" pageScale="1" pageWidth="1654" pageHeight="1169" background="none" math="1" shadow="0">
            <root>
                <mxCell id="0"/>
                <mxCell id="1" parent="0"/>
                <mxCell id="528" value="" style="group;fontSize=20;fontStyle=1" vertex="1" connectable="0" parent="1">
                    <mxGeometry x="1030" y="290.00000000000006" width="543" height="273" as="geometry"/>
                </mxCell>
                <mxCell id="445" value="" style="whiteSpace=wrap;html=1;rounded=1;labelBackgroundColor=none;labelBorderColor=none;strokeColor=#FF8000;strokeWidth=2;fontSize=20;fontColor=#FF8000;fillColor=none;gradientColor=none;glass=1;fontStyle=1" vertex="1" parent="528">
                    <mxGeometry y="138" width="290" height="135" as="geometry"/>
                </mxCell>
                <mxCell id="350" value="&lt;font style=&quot;font-size: 20px;&quot;&gt;OTC&lt;/font&gt;" style="ellipse;whiteSpace=wrap;html=1;fontSize=20;fontStyle=1" vertex="1" parent="528">
                    <mxGeometry x="7" y="164.5899999999999" width="45" height="45" as="geometry"/>
                </mxCell>
                <mxCell id="432" style="edgeStyle=orthogonalEdgeStyle;rounded=0;html=1;dashed=1;strokeColor=#FF0000;strokeWidth=2;fontSize=20;fontColor=#E8E8E8;fontStyle=1;entryX=1;entryY=0.5;entryDx=0;entryDy=0;" edge="1" parent="528" source="383" target="350">
                    <mxGeometry relative="1" as="geometry">
                        <Array as="points"/>
                    </mxGeometry>
                </mxCell>
                <mxCell id="388" value="$$-2.5^{o}C$$" style="fontSize=20;strokeColor=none;labelBorderColor=none;labelBackgroundColor=#FFFFFF;fontColor=#000000;whiteSpace=wrap;html=1;fontStyle=1" vertex="1" parent="528">
                    <mxGeometry x="120" y="150.73999999999984" width="40" height="20.76923076923077" as="geometry"/>
                </mxCell>
                <mxCell id="425" value="&lt;span style=&quot;font-family: SFMono-Regular, Menlo, Monaco, Consolas, &amp;quot;Liberation Mono&amp;quot;, &amp;quot;Courier New&amp;quot;, monospace; text-align: left; font-size: 20px;&quot;&gt;&lt;font style=&quot;font-size: 20px;&quot;&gt;$$T_{C1S9}^{ OPT}$$&lt;/font&gt;&lt;/span&gt;" style="whiteSpace=wrap;html=1;fontSize=20;strokeColor=none;labelBackgroundColor=#FFFFFF;fontColor=#000000;fontStyle=1" vertex="1" parent="528">
                    <mxGeometry x="222" y="174.1053846153846" width="60" height="25.961538461538463" as="geometry"/>
                </mxCell>
                <mxCell id="428" style="edgeStyle=orthogonalEdgeStyle;rounded=0;html=1;entryX=1;entryY=0.5;entryDx=0;entryDy=0;dashed=1;strokeColor=#FF0000;strokeWidth=2;fontSize=20;fontColor=#E8E8E8;fontStyle=1" edge="1" parent="528" source="425" target="383">
                    <mxGeometry relative="1" as="geometry"/>
                </mxCell>
                <mxCell id="383" value="&lt;span style=&quot;font-family: SFMono-Regular, Menlo, Monaco, Consolas, &amp;quot;Liberation Mono&amp;quot;, &amp;quot;Courier New&amp;quot;, monospace; text-align: left; font-size: 20px;&quot;&gt;&lt;font style=&quot;font-size: 20px;&quot;&gt;$$\Delta y_s$$&lt;/font&gt;&lt;/span&gt;" style="whiteSpace=wrap;html=1;fontSize=20;strokeColor=default;labelBackgroundColor=#FFFFFF;fontColor=#000000;fontStyle=1" vertex="1" parent="528">
                    <mxGeometry x="120" y="171.50923076923064" width="40" height="31.153846153846157" as="geometry"/>
                </mxCell>
                <mxCell id="332" style="edgeStyle=orthogonalEdgeStyle;rounded=0;orthogonalLoop=1;jettySize=auto;html=1;entryX=1.029;entryY=0.51;entryDx=0;entryDy=0;entryPerimeter=0;exitX=1;exitY=0;exitDx=0;exitDy=0;exitPerimeter=0;strokeWidth=2;fontSize=20;fontStyle=1" parent="528" edge="1" target="225">
                    <mxGeometry relative="1" as="geometry">
                        <mxPoint x="53.789999999999964" y="110.00000000000011" as="targetPoint"/>
                        <mxPoint x="147" y="100.00000000000023" as="sourcePoint"/>
                        <Array as="points">
                            <mxPoint x="147" y="117"/>
                            <mxPoint x="55" y="117"/>
                        </Array>
                    </mxGeometry>
                </mxCell>
                <mxCell id="529" value="" style="whiteSpace=wrap;html=1;rounded=1;labelBackgroundColor=none;labelBorderColor=none;strokeColor=#FF8000;strokeWidth=2;fontSize=20;fontColor=#FF8000;fillColor=none;gradientColor=none;glass=1;fontStyle=1" vertex="1" parent="1">
                    <mxGeometry x="40" y="780" width="370" height="239.09" as="geometry"/>
                </mxCell>
                <mxCell id="172" style="edgeStyle=orthogonalEdgeStyle;rounded=0;orthogonalLoop=1;jettySize=auto;html=1;entryX=0;entryY=0.25;entryDx=0;entryDy=0;fontSize=20;fontStyle=1" parent="1" source="226" target="174" edge="1">
                    <mxGeometry relative="1" as="geometry">
                        <mxPoint x="1795" y="-132.91000000000003" as="targetPoint"/>
                        <Array as="points">
                            <mxPoint x="1397" y="407.0899999999999"/>
                            <mxPoint x="1397" y="175.08999999999997"/>
                            <mxPoint x="225" y="175.08999999999997"/>
                        </Array>
                    </mxGeometry>
                </mxCell>
                <mxCell id="173" style="edgeStyle=orthogonalEdgeStyle;rounded=0;orthogonalLoop=1;jettySize=auto;html=1;exitX=1;exitY=0;exitDx=0;exitDy=0;exitPerimeter=0;entryX=0.063;entryY=0.469;entryDx=0;entryDy=0;entryPerimeter=0;strokeWidth=2;fontSize=20;fontStyle=1" parent="1" source="220" target="245" edge="1">
                    <mxGeometry relative="1" as="geometry">
                        <Array as="points">
                            <mxPoint x="1297" y="707.09"/>
                        </Array>
                    </mxGeometry>
                </mxCell>
                <mxCell id="174" value="" style="triangle;whiteSpace=wrap;html=1;rotation=90;fontSize=20;fontStyle=1" parent="1" vertex="1">
                    <mxGeometry x="175" y="317.09000000000003" width="60" height="80" as="geometry"/>
                </mxCell>
                <mxCell id="175" style="edgeStyle=orthogonalEdgeStyle;rounded=0;orthogonalLoop=1;jettySize=auto;html=1;entryX=0;entryY=0.75;entryDx=0;entryDy=0;fontSize=20;fontStyle=1" parent="1" source="176" target="174" edge="1">
                    <mxGeometry relative="1" as="geometry">
                        <Array as="points">
                            <mxPoint x="185" y="237.09000000000003"/>
                        </Array>
                    </mxGeometry>
                </mxCell>
                <mxCell id="176" value="" style="verticalLabelPosition=bottom;align=center;html=1;verticalAlign=top;pointerEvents=1;dashed=0;shape=mxgraph.pid2valves.valve;valveType=ball;fontSize=20;fontStyle=1" parent="1" vertex="1">
                    <mxGeometry x="125" y="226.77000000000004" width="30" height="20" as="geometry"/>
                </mxCell>
                <mxCell id="177" style="edgeStyle=orthogonalEdgeStyle;rounded=0;orthogonalLoop=1;jettySize=auto;html=1;entryX=0.078;entryY=0.385;entryDx=0;entryDy=0;entryPerimeter=0;fontSize=20;fontStyle=1" parent="1" source="174" target="311" edge="1">
                    <mxGeometry relative="1" as="geometry">
                        <mxPoint x="235" y="537.0899999999999" as="targetPoint"/>
                        <Array as="points">
                            <mxPoint x="205" y="488.0899999999999"/>
                        </Array>
                    </mxGeometry>
                </mxCell>
                <mxCell id="178" style="edgeStyle=orthogonalEdgeStyle;rounded=0;orthogonalLoop=1;jettySize=auto;html=1;entryX=0.1;entryY=0.48;entryDx=0;entryDy=0;entryPerimeter=0;strokeWidth=2;fontSize=20;fontStyle=1" parent="1" source="179" target="311" edge="1">
                    <mxGeometry relative="1" as="geometry">
                        <mxPoint x="234.55000000000018" y="587.2049999999999" as="targetPoint"/>
                    </mxGeometry>
                </mxCell>
                <mxCell id="179" value="" style="verticalLabelPosition=bottom;align=center;html=1;verticalAlign=top;pointerEvents=1;dashed=0;shape=mxgraph.pid2valves.valve;valveType=ball;fontSize=20;fontStyle=1" parent="1" vertex="1">
                    <mxGeometry x="125" y="577.0899999999999" width="30" height="20" as="geometry"/>
                </mxCell>
                <mxCell id="181" style="edgeStyle=orthogonalEdgeStyle;rounded=0;orthogonalLoop=1;jettySize=auto;html=1;entryX=0.098;entryY=0.333;entryDx=0;entryDy=0;entryPerimeter=0;fontSize=20;fontStyle=1" parent="1" source="182" target="312" edge="1">
                    <mxGeometry relative="1" as="geometry">
                        <mxPoint x="597" y="535.0899999999999" as="targetPoint"/>
                        <Array as="points">
                            <mxPoint x="537" y="535.0899999999999"/>
                            <mxPoint x="537" y="535.0899999999999"/>
                        </Array>
                    </mxGeometry>
                </mxCell>
                <mxCell id="182" value="" style="verticalLabelPosition=bottom;align=center;html=1;verticalAlign=top;pointerEvents=1;dashed=0;shape=mxgraph.pid2valves.valve;valveType=ball;fontSize=20;fontStyle=1" parent="1" vertex="1">
                    <mxGeometry x="475" y="527.0899999999999" width="30" height="20" as="geometry"/>
                </mxCell>
                <mxCell id="183" style="edgeStyle=orthogonalEdgeStyle;rounded=0;orthogonalLoop=1;jettySize=auto;html=1;entryX=0;entryY=0.5;entryDx=0;entryDy=0;entryPerimeter=0;exitX=0.928;exitY=0.507;exitDx=0;exitDy=0;exitPerimeter=0;strokeWidth=2;fontSize=20;fontStyle=1" parent="1" source="311" target="182" edge="1">
                    <mxGeometry relative="1" as="geometry">
                        <mxPoint x="385" y="537.0899999999999" as="sourcePoint"/>
                    </mxGeometry>
                </mxCell>
                <mxCell id="186" value="" style="verticalLabelPosition=bottom;align=center;html=1;verticalAlign=top;pointerEvents=1;dashed=0;shape=mxgraph.pid2valves.valve;valveType=ball;fontSize=20;fontStyle=1" parent="1" vertex="1">
                    <mxGeometry x="427" y="465.0899999999999" width="30" height="20" as="geometry"/>
                </mxCell>
                <mxCell id="196" value="&lt;font style=&quot;font-size: 20px;&quot;&gt;TC&lt;/font&gt;" style="ellipse;whiteSpace=wrap;html=1;fontSize=20;fontStyle=1" parent="1" vertex="1">
                    <mxGeometry x="422" y="399.5899999999999" width="40" height="40" as="geometry"/>
                </mxCell>
                <mxCell id="197" value="&lt;span style=&quot;font-size: 20px;&quot;&gt;PC&lt;/span&gt;" style="ellipse;whiteSpace=wrap;html=1;fontSize=20;fontStyle=1" parent="1" vertex="1">
                    <mxGeometry x="1212" y="217.09000000000003" width="40" height="40" as="geometry"/>
                </mxCell>
                <mxCell id="198" value="" style="verticalLabelPosition=bottom;align=center;html=1;verticalAlign=top;pointerEvents=1;dashed=0;shape=mxgraph.pid2valves.valve;valveType=ball;rotation=-45;fontSize=20;fontStyle=1" parent="1" vertex="1">
                    <mxGeometry x="1062" y="265.09000000000003" width="30" height="20" as="geometry"/>
                </mxCell>
                <mxCell id="199" style="edgeStyle=orthogonalEdgeStyle;rounded=0;orthogonalLoop=1;jettySize=auto;html=1;entryX=0.5;entryY=1;entryDx=0;entryDy=0;strokeWidth=2;dashed=1;fillColor=#a20025;strokeColor=#FF0000;fontSize=20;fontStyle=1" parent="1" source="218" target="197" edge="1">
                    <mxGeometry relative="1" as="geometry"/>
                </mxCell>
                <mxCell id="200" style="edgeStyle=orthogonalEdgeStyle;rounded=0;orthogonalLoop=1;jettySize=auto;html=1;entryX=0.554;entryY=0.264;entryDx=0;entryDy=0;entryPerimeter=0;strokeWidth=2;dashed=1;fillColor=#a20025;strokeColor=#FF0000;exitX=0;exitY=0.5;exitDx=0;exitDy=0;fontSize=20;fontStyle=1" parent="1" source="197" target="198" edge="1">
                    <mxGeometry relative="1" as="geometry">
                        <Array as="points">
                            <mxPoint x="1060" y="237.09000000000003"/>
                            <mxPoint x="1060" y="271.09000000000003"/>
                        </Array>
                    </mxGeometry>
                </mxCell>
                <mxCell id="201" value="&lt;font style=&quot;font-size: 20px;&quot;&gt;LC&lt;/font&gt;" style="ellipse;whiteSpace=wrap;html=1;fontSize=20;fontStyle=1" parent="1" vertex="1">
                    <mxGeometry x="1212" y="808.0900000000001" width="40" height="40" as="geometry"/>
                </mxCell>
                <mxCell id="208" value="" style="edgeStyle=none;orthogonalLoop=1;jettySize=auto;html=1;rounded=0;exitX=0.5;exitY=1;exitDx=0;exitDy=0;entryX=0.505;entryY=0.165;entryDx=0;entryDy=0;entryPerimeter=0;fontSize=20;fontStyle=1" parent="1" source="196" target="186" edge="1">
                    <mxGeometry width="100" relative="1" as="geometry">
                        <mxPoint x="437" y="435.0899999999999" as="sourcePoint"/>
                        <mxPoint x="537" y="435.0899999999999" as="targetPoint"/>
                        <Array as="points"/>
                    </mxGeometry>
                </mxCell>
                <mxCell id="214" style="edgeStyle=orthogonalEdgeStyle;rounded=0;orthogonalLoop=1;jettySize=auto;html=1;entryX=0;entryY=0.5;entryDx=0;entryDy=0;dashed=1;strokeColor=#FF0000;strokeWidth=2;fontSize=20;fontStyle=1" parent="1" source="215" target="308" edge="1">
                    <mxGeometry relative="1" as="geometry">
                        <Array as="points">
                            <mxPoint x="1220" y="655.0899999999999"/>
                            <mxPoint x="1220" y="655.0899999999999"/>
                        </Array>
                    </mxGeometry>
                </mxCell>
                <mxCell id="423" style="edgeStyle=orthogonalEdgeStyle;rounded=0;html=1;entryX=0.5;entryY=1;entryDx=0;entryDy=0;dashed=1;strokeColor=#FF0000;strokeWidth=2;fontSize=20;fontColor=#E8E8E8;fontStyle=1" edge="1" parent="1" source="215" target="350">
                    <mxGeometry relative="1" as="geometry"/>
                </mxCell>
                <mxCell id="429" style="edgeStyle=orthogonalEdgeStyle;rounded=0;html=1;entryX=0;entryY=0.5;entryDx=0;entryDy=0;dashed=1;strokeColor=#FF0000;strokeWidth=2;fontSize=20;fontColor=#E8E8E8;fontStyle=1" edge="1" parent="1" source="215" target="366">
                    <mxGeometry relative="1" as="geometry"/>
                </mxCell>
                <mxCell id="215" value="" style="verticalLabelPosition=bottom;outlineConnect=0;align=center;dashed=0;html=1;verticalAlign=top;shape=mxgraph.pid2misc.column;columnType=tray;fontSize=20;fontStyle=1" parent="1" vertex="1">
                    <mxGeometry x="920" y="347.09" width="80" height="380" as="geometry"/>
                </mxCell>
                <mxCell id="216" style="edgeStyle=orthogonalEdgeStyle;rounded=0;orthogonalLoop=1;jettySize=auto;html=1;strokeWidth=2;fontSize=20;fontStyle=1" parent="1" target="220" edge="1">
                    <mxGeometry relative="1" as="geometry">
                        <Array as="points">
                            <mxPoint x="1185" y="727.09"/>
                            <mxPoint x="1185" y="727.09"/>
                        </Array>
                        <mxPoint x="1145.0000000000005" y="727.09" as="sourcePoint"/>
                    </mxGeometry>
                </mxCell>
                <mxCell id="217" style="edgeStyle=orthogonalEdgeStyle;rounded=0;orthogonalLoop=1;jettySize=auto;html=1;entryX=0.5;entryY=0;entryDx=0;entryDy=0;strokeWidth=2;dashed=1;fillColor=#a20025;strokeColor=#FF0000;fontSize=20;fontStyle=1" parent="1" source="218" target="239" edge="1">
                    <mxGeometry relative="1" as="geometry"/>
                </mxCell>
                <mxCell id="218" value="" style="shape=mxgraph.pid.vessels.pressurized_vessel;html=1;pointerEvents=1;align=center;verticalLabelPosition=bottom;verticalAlign=top;dashed=0;fontSize=20;fontStyle=1" parent="1" vertex="1">
                    <mxGeometry x="1117" y="285.09000000000003" width="80" height="60" as="geometry"/>
                </mxCell>
                <mxCell id="220" value="" style="verticalLabelPosition=bottom;outlineConnect=0;align=center;dashed=0;html=1;verticalAlign=top;shape=mxgraph.pid.compressors.centrifugal_compressor;fontSize=20;fontStyle=1" parent="1" vertex="1">
                    <mxGeometry x="1205" y="707.09" width="40" height="40" as="geometry"/>
                </mxCell>
                <mxCell id="365" style="edgeStyle=orthogonalEdgeStyle;rounded=0;html=1;entryX=0.5;entryY=1;entryDx=0;entryDy=0;dashed=1;strokeColor=#FF0000;strokeWidth=2;fontSize=20;fontStyle=1" edge="1" parent="1" source="222" target="360">
                    <mxGeometry relative="1" as="geometry">
                        <Array as="points">
                            <mxPoint x="880" y="537.0899999999999"/>
                        </Array>
                    </mxGeometry>
                </mxCell>
                <mxCell id="222" value="" style="verticalLabelPosition=bottom;align=center;html=1;verticalAlign=top;pointerEvents=1;dashed=0;shape=mxgraph.pid2valves.valve;valveType=ball;fontSize=20;fontStyle=1" parent="1" vertex="1">
                    <mxGeometry x="810" y="527.0899999999999" width="30" height="20" as="geometry"/>
                </mxCell>
                <mxCell id="223" value="" style="shape=mxgraph.pid.heat_exchangers.reboiler;html=1;pointerEvents=1;align=center;verticalLabelPosition=bottom;verticalAlign=top;dashed=0;fontSize=20;fontStyle=1" parent="1" vertex="1">
                    <mxGeometry x="1067" y="702.09" width="110" height="50" as="geometry"/>
                </mxCell>
                <mxCell id="224" value="" style="verticalLabelPosition=bottom;outlineConnect=0;align=center;dashed=0;html=1;verticalAlign=top;shape=mxgraph.pid.compressors.centrifugal_compressor;rotation=90;fontSize=20;fontStyle=1" parent="1" vertex="1">
                    <mxGeometry x="1147" y="367.09000000000003" width="30" height="30" as="geometry"/>
                </mxCell>
                <mxCell id="582" style="edgeStyle=orthogonalEdgeStyle;rounded=0;html=1;strokeColor=default;strokeWidth=2;fontSize=20;fontColor=none;noLabel=1;" edge="1" parent="1" source="225">
                    <mxGeometry relative="1" as="geometry">
                        <mxPoint x="1000" y="407" as="targetPoint"/>
                    </mxGeometry>
                </mxCell>
                <mxCell id="225" value="" style="verticalLabelPosition=bottom;align=center;html=1;verticalAlign=top;pointerEvents=1;dashed=0;shape=mxgraph.pid2valves.valve;valveType=ball;fontSize=20;fontStyle=1" parent="1" vertex="1">
                    <mxGeometry x="1054" y="397.09000000000003" width="30" height="20" as="geometry"/>
                </mxCell>
                <mxCell id="226" value="" style="verticalLabelPosition=bottom;align=center;html=1;verticalAlign=top;pointerEvents=1;dashed=0;shape=mxgraph.pid2valves.valve;valveType=ball;fontSize=20;fontStyle=1" parent="1" vertex="1">
                    <mxGeometry x="1215" y="397.09000000000003" width="30" height="20" as="geometry"/>
                </mxCell>
                <mxCell id="229" value="" style="endArrow=classic;html=1;rounded=0;entryX=-0.012;entryY=0.504;entryDx=0;entryDy=0;entryPerimeter=0;strokeWidth=2;fontSize=20;fontStyle=1" parent="1" target="226" edge="1">
                    <mxGeometry width="50" height="50" relative="1" as="geometry">
                        <mxPoint x="1165.0000000000005" y="407.0899999999999" as="sourcePoint"/>
                        <mxPoint x="1305" y="437.0899999999999" as="targetPoint"/>
                    </mxGeometry>
                </mxCell>
                <mxCell id="230" style="edgeStyle=orthogonalEdgeStyle;rounded=0;orthogonalLoop=1;jettySize=auto;html=1;entryX=0.01;entryY=0.5;entryDx=0;entryDy=0;entryPerimeter=0;fontSize=20;fontStyle=1" parent="1" target="224" edge="1">
                    <mxGeometry relative="1" as="geometry">
                        <mxPoint x="1162" y="347.09000000000026" as="sourcePoint"/>
                        <Array as="points">
                            <mxPoint x="1162" y="357.09000000000003"/>
                            <mxPoint x="1162" y="357.09000000000003"/>
                        </Array>
                    </mxGeometry>
                </mxCell>
                <mxCell id="233" value="" style="shape=mxgraph.pid.heat_exchangers.condenser;html=1;pointerEvents=1;align=center;verticalLabelPosition=bottom;verticalAlign=top;dashed=0;movable=1;resizable=1;rotatable=1;deletable=1;editable=1;locked=0;connectable=1;fontSize=20;fontStyle=1" parent="1" vertex="1">
                    <mxGeometry x="1007" y="285.09000000000003" width="60" height="60" as="geometry"/>
                </mxCell>
                <mxCell id="234" style="edgeStyle=orthogonalEdgeStyle;rounded=0;orthogonalLoop=1;jettySize=auto;html=1;entryX=-0.021;entryY=0.494;entryDx=0;entryDy=0;entryPerimeter=0;strokeWidth=2;fontSize=20;fontStyle=1" parent="1" source="233" target="218" edge="1">
                    <mxGeometry relative="1" as="geometry"/>
                </mxCell>
                <mxCell id="235" value="&lt;font style=&quot;font-size: 20px;&quot;&gt;FC&lt;/font&gt;" style="ellipse;whiteSpace=wrap;html=1;fontSize=20;fontStyle=1" parent="1" vertex="1">
                    <mxGeometry x="1049" y="335.09000000000003" width="40" height="40" as="geometry"/>
                </mxCell>
                <mxCell id="236" value="" style="shape=mxgraph.pid.heat_exchangers.heater;html=1;pointerEvents=1;align=center;verticalLabelPosition=bottom;verticalAlign=top;dashed=0;fontSize=20;fontStyle=1" parent="1" vertex="1">
                    <mxGeometry x="977" y="707.09" width="60" height="60" as="geometry"/>
                </mxCell>
                <mxCell id="237" value="&lt;font style=&quot;font-size: 20px;&quot;&gt;FC&lt;/font&gt;" style="ellipse;whiteSpace=wrap;html=1;fontSize=20;fontStyle=1" parent="1" vertex="1">
                    <mxGeometry x="1217" y="607.0899999999999" width="40" height="40" as="geometry"/>
                </mxCell>
                <mxCell id="238" value="" style="verticalLabelPosition=bottom;align=center;html=1;verticalAlign=top;pointerEvents=1;dashed=0;shape=mxgraph.pid2valves.valve;valveType=ball;rotation=135;fontSize=20;fontStyle=1" parent="1" vertex="1">
                    <mxGeometry x="1024" y="697.09" width="30" height="20" as="geometry"/>
                </mxCell>
                <mxCell id="447" style="edgeStyle=orthogonalEdgeStyle;rounded=0;html=1;entryX=0.511;entryY=0.15;entryDx=0;entryDy=0;entryPerimeter=0;dashed=1;strokeColor=#FF0000;strokeWidth=2;fontSize=20;fontColor=#FF8000;fontStyle=1" edge="1" parent="1" source="239" target="226">
                    <mxGeometry relative="1" as="geometry"/>
                </mxCell>
                <mxCell id="239" value="&lt;span style=&quot;font-size: 20px;&quot;&gt;LC&lt;/span&gt;" style="ellipse;whiteSpace=wrap;html=1;fontSize=20;fontStyle=1" parent="1" vertex="1">
                    <mxGeometry x="1210" y="335.09000000000003" width="40" height="40" as="geometry"/>
                </mxCell>
                <mxCell id="241" style="edgeStyle=orthogonalEdgeStyle;rounded=0;orthogonalLoop=1;jettySize=auto;html=1;entryX=0.513;entryY=0.2;entryDx=0;entryDy=0;entryPerimeter=0;fontSize=20;fontStyle=1" parent="1" source="235" target="225" edge="1">
                    <mxGeometry relative="1" as="geometry"/>
                </mxCell>
                <mxCell id="380" style="edgeStyle=orthogonalEdgeStyle;rounded=0;html=1;entryX=1;entryY=0.5;entryDx=0;entryDy=0;dashed=1;strokeColor=#FF0000;strokeWidth=2;fontSize=20;fontColor=#E8E8E8;fontStyle=1" edge="1" parent="1" source="242" target="201">
                    <mxGeometry relative="1" as="geometry">
                        <Array as="points">
                            <mxPoint x="1340" y="828.0900000000001"/>
                            <mxPoint x="1340" y="828.0900000000001"/>
                        </Array>
                    </mxGeometry>
                </mxCell>
                <mxCell id="591" style="edgeStyle=orthogonalEdgeStyle;rounded=0;html=1;entryX=0;entryY=0.5;entryDx=0;entryDy=0;dashed=1;strokeColor=#FF0000;strokeWidth=2;fontSize=20;fontColor=#000000;" edge="1" parent="1" source="242" target="590">
                    <mxGeometry relative="1" as="geometry">
                        <Array as="points">
                            <mxPoint x="1480" y="790"/>
                            <mxPoint x="1480" y="790"/>
                        </Array>
                    </mxGeometry>
                </mxCell>
                <mxCell id="242" value="" style="verticalLabelPosition=bottom;outlineConnect=0;align=center;dashed=0;html=1;verticalAlign=top;shape=mxgraph.pid2misc.column;columnType=tray;fontSize=20;fontStyle=1" parent="1" vertex="1">
                    <mxGeometry x="1377" y="517.0899999999999" width="80" height="380" as="geometry"/>
                </mxCell>
                <mxCell id="243" style="edgeStyle=orthogonalEdgeStyle;rounded=0;orthogonalLoop=1;jettySize=auto;html=1;entryX=1;entryY=0.6;entryDx=0;entryDy=0;entryPerimeter=0;strokeWidth=2;fontSize=20;fontStyle=1;exitX=1;exitY=0;exitDx=0;exitDy=0;exitPerimeter=0;" parent="1" target="252" edge="1" source="254">
                    <mxGeometry relative="1" as="geometry">
                        <mxPoint x="1151" y="947.0900000000001" as="targetPoint"/>
                        <mxPoint x="1740" y="830" as="sourcePoint"/>
                        <Array as="points">
                            <mxPoint x="1740" y="900"/>
                            <mxPoint x="1740" y="972"/>
                        </Array>
                    </mxGeometry>
                </mxCell>
                <mxCell id="244" style="edgeStyle=orthogonalEdgeStyle;rounded=0;orthogonalLoop=1;jettySize=auto;html=1;strokeWidth=2;fontSize=20;fontStyle=1" parent="1" source="245" target="242" edge="1">
                    <mxGeometry relative="1" as="geometry"/>
                </mxCell>
                <mxCell id="245" value="" style="verticalLabelPosition=bottom;align=center;html=1;verticalAlign=top;pointerEvents=1;dashed=0;shape=mxgraph.pid2valves.valve;valveType=ball;fontSize=20;fontStyle=1" parent="1" vertex="1">
                    <mxGeometry x="1295" y="697.09" width="30" height="20" as="geometry"/>
                </mxCell>
                <mxCell id="246" value="" style="verticalLabelPosition=bottom;outlineConnect=0;align=center;dashed=0;html=1;verticalAlign=top;shape=mxgraph.pid.compressors.centrifugal_compressor;rotation=90;fontSize=20;fontStyle=1" parent="1" vertex="1">
                    <mxGeometry x="1595" y="537.0899999999999" width="30" height="30" as="geometry"/>
                </mxCell>
                <mxCell id="247" style="edgeStyle=orthogonalEdgeStyle;rounded=0;orthogonalLoop=1;jettySize=auto;html=1;strokeWidth=2;fontSize=20;fontStyle=1" parent="1" source="248" target="242" edge="1">
                    <mxGeometry relative="1" as="geometry">
                        <Array as="points">
                            <mxPoint x="1497" y="577.0899999999999"/>
                            <mxPoint x="1497" y="577.0899999999999"/>
                        </Array>
                    </mxGeometry>
                </mxCell>
                <mxCell id="248" value="" style="verticalLabelPosition=bottom;align=center;html=1;verticalAlign=top;pointerEvents=1;dashed=0;shape=mxgraph.pid2valves.valve;valveType=ball;fontSize=20;fontStyle=1" parent="1" vertex="1">
                    <mxGeometry x="1514" y="567.0899999999999" width="30" height="20" as="geometry"/>
                </mxCell>
                <mxCell id="397" style="edgeStyle=orthogonalEdgeStyle;rounded=0;html=1;entryX=1;entryY=0.5;entryDx=0;entryDy=0;dashed=1;strokeColor=#FF0000;strokeWidth=2;fontSize=20;fontColor=#E8E8E8;fontStyle=1" edge="1" parent="1" source="249" target="395">
                    <mxGeometry relative="1" as="geometry">
                        <Array as="points">
                            <mxPoint x="1730" y="577.0899999999999"/>
                            <mxPoint x="1730" y="722.09"/>
                        </Array>
                    </mxGeometry>
                </mxCell>
                <mxCell id="435" style="edgeStyle=orthogonalEdgeStyle;rounded=0;html=1;entryX=1;entryY=0.5;entryDx=0;entryDy=0;dashed=1;strokeColor=#FF0000;strokeWidth=2;fontSize=20;fontColor=#E8E8E8;fontStyle=1" edge="1" parent="1" source="249" target="370">
                    <mxGeometry relative="1" as="geometry">
                        <Array as="points">
                            <mxPoint x="1730" y="577.0899999999999"/>
                            <mxPoint x="1730" y="614.0899999999999"/>
                        </Array>
                    </mxGeometry>
                </mxCell>
                <mxCell id="249" value="" style="verticalLabelPosition=bottom;align=center;html=1;verticalAlign=top;pointerEvents=1;dashed=0;shape=mxgraph.pid2valves.valve;valveType=ball;fontSize=20;fontStyle=1" parent="1" vertex="1">
                    <mxGeometry x="1685" y="567.0899999999999" width="30" height="20" as="geometry"/>
                </mxCell>
                <mxCell id="250" style="edgeStyle=orthogonalEdgeStyle;rounded=0;orthogonalLoop=1;jettySize=auto;html=1;entryX=0.993;entryY=0.5;entryDx=0;entryDy=0;entryPerimeter=0;exitX=1;exitY=0;exitDx=0;exitDy=0;exitPerimeter=0;fontSize=20;fontStyle=1" parent="1" source="246" target="248" edge="1">
                    <mxGeometry relative="1" as="geometry">
                        <mxPoint x="1705" y="607.0899999999999" as="targetPoint"/>
                        <mxPoint x="1615" y="577.0899999999999" as="sourcePoint"/>
                        <Array as="points">
                            <mxPoint x="1625" y="577.0899999999999"/>
                        </Array>
                    </mxGeometry>
                </mxCell>
                <mxCell id="251" value="" style="endArrow=classic;html=1;rounded=0;entryX=-0.012;entryY=0.504;entryDx=0;entryDy=0;entryPerimeter=0;fontSize=20;fontStyle=1" parent="1" target="249" edge="1">
                    <mxGeometry width="50" height="50" relative="1" as="geometry">
                        <mxPoint x="1625.0000000000005" y="577.0899999999999" as="sourcePoint"/>
                        <mxPoint x="1765" y="607.0899999999999" as="targetPoint"/>
                    </mxGeometry>
                </mxCell>
                <mxCell id="252" value="" style="verticalLabelPosition=bottom;align=center;html=1;verticalAlign=top;pointerEvents=1;dashed=0;shape=mxgraph.pid2valves.valve;valveType=ball;fontSize=20;fontStyle=1" parent="1" vertex="1">
                    <mxGeometry x="1217" y="960.0000000000001" width="30" height="20" as="geometry"/>
                </mxCell>
                <mxCell id="254" value="" style="verticalLabelPosition=bottom;outlineConnect=0;align=center;dashed=0;html=1;verticalAlign=top;shape=mxgraph.pid.compressors.centrifugal_compressor;fontSize=20;fontStyle=1" parent="1" vertex="1">
                    <mxGeometry x="1675" y="900.0000000000001" width="40" height="40" as="geometry"/>
                </mxCell>
                <mxCell id="585" style="edgeStyle=none;rounded=0;html=1;entryX=0.01;entryY=0.5;entryDx=0;entryDy=0;entryPerimeter=0;strokeColor=#FFFFFF;strokeWidth=2;fontSize=20;fontColor=#FFFFFF;" edge="1" parent="1" source="256" target="254">
                    <mxGeometry relative="1" as="geometry"/>
                </mxCell>
                <mxCell id="256" value="" style="shape=mxgraph.pid.heat_exchangers.reboiler;html=1;pointerEvents=1;align=center;verticalLabelPosition=bottom;verticalAlign=top;dashed=0;fontSize=20;fontStyle=1" parent="1" vertex="1">
                    <mxGeometry x="1530" y="897.0900000000001" width="110" height="50" as="geometry"/>
                </mxCell>
                <mxCell id="259" value="" style="shape=mxgraph.pid.heat_exchangers.heater;html=1;pointerEvents=1;align=center;verticalLabelPosition=bottom;verticalAlign=top;dashed=0;fontSize=20;fontStyle=1" parent="1" vertex="1">
                    <mxGeometry x="1445" y="900" width="60" height="60" as="geometry"/>
                </mxCell>
                <mxCell id="265" value="" style="shape=mxgraph.pid.vessels.pressurized_vessel;html=1;pointerEvents=1;align=center;verticalLabelPosition=bottom;verticalAlign=top;dashed=0;fontSize=20;fontStyle=1" parent="1" vertex="1">
                    <mxGeometry x="1567" y="455.0899999999999" width="80" height="60" as="geometry"/>
                </mxCell>
                <mxCell id="266" style="edgeStyle=orthogonalEdgeStyle;rounded=0;orthogonalLoop=1;jettySize=auto;html=1;strokeWidth=2;fontSize=20;fontStyle=1" parent="1" edge="1">
                    <mxGeometry relative="1" as="geometry">
                        <mxPoint x="1612" y="515.0899999999999" as="sourcePoint"/>
                        <Array as="points">
                            <mxPoint x="1612" y="537.0899999999999"/>
                        </Array>
                        <mxPoint x="1612" y="537.0899999999999" as="targetPoint"/>
                    </mxGeometry>
                </mxCell>
                <mxCell id="267" value="" style="shape=mxgraph.pid.heat_exchangers.condenser;html=1;pointerEvents=1;align=center;verticalLabelPosition=bottom;verticalAlign=top;dashed=0;movable=1;resizable=1;rotatable=1;deletable=1;editable=1;locked=0;connectable=1;fontSize=20;fontStyle=1" parent="1" vertex="1">
                    <mxGeometry x="1457" y="455.0899999999999" width="60" height="60" as="geometry"/>
                </mxCell>
                <mxCell id="269" value="&lt;span style=&quot;font-size: 20px;&quot;&gt;PC&lt;/span&gt;" style="ellipse;whiteSpace=wrap;html=1;fontSize=20;fontStyle=1" parent="1" vertex="1">
                    <mxGeometry x="1667" y="405.0899999999999" width="40" height="40" as="geometry"/>
                </mxCell>
                <mxCell id="270" value="" style="verticalLabelPosition=bottom;align=center;html=1;verticalAlign=top;pointerEvents=1;dashed=0;shape=mxgraph.pid2valves.valve;valveType=ball;rotation=-45;fontSize=20;fontStyle=1" parent="1" vertex="1">
                    <mxGeometry x="1517" y="435.0899999999999" width="30" height="20" as="geometry"/>
                </mxCell>
                <mxCell id="272" value="&lt;span style=&quot;font-size: 20px;&quot;&gt;LC&lt;/span&gt;" style="ellipse;whiteSpace=wrap;html=1;fontSize=20;fontStyle=1" parent="1" vertex="1">
                    <mxGeometry x="1680" y="497.0899999999999" width="40" height="40" as="geometry"/>
                </mxCell>
                <mxCell id="273" style="edgeStyle=orthogonalEdgeStyle;rounded=0;orthogonalLoop=1;jettySize=auto;html=1;fontSize=20;fontStyle=1;dashed=1;strokeWidth=2;strokeColor=#FF0000;" parent="1" source="308" edge="1">
                    <mxGeometry relative="1" as="geometry">
                        <Array as="points"/>
                        <mxPoint x="1310" y="700" as="targetPoint"/>
                    </mxGeometry>
                </mxCell>
                <mxCell id="278" style="edgeStyle=orthogonalEdgeStyle;rounded=0;orthogonalLoop=1;jettySize=auto;html=1;entryX=0;entryY=0.5;entryDx=0;entryDy=0;dashed=1;strokeColor=#FF0000;strokeWidth=2;fontSize=20;fontStyle=1" parent="1" source="265" target="272" edge="1">
                    <mxGeometry relative="1" as="geometry"/>
                </mxCell>
                <mxCell id="279" style="edgeStyle=orthogonalEdgeStyle;rounded=0;orthogonalLoop=1;jettySize=auto;html=1;entryX=0.5;entryY=1;entryDx=0;entryDy=0;dashed=1;strokeColor=#FF0000;strokeWidth=2;fontSize=20;fontStyle=1" parent="1" source="265" target="269" edge="1">
                    <mxGeometry relative="1" as="geometry"/>
                </mxCell>
                <mxCell id="280" style="edgeStyle=orthogonalEdgeStyle;rounded=0;orthogonalLoop=1;jettySize=auto;html=1;entryX=0.5;entryY=0;entryDx=0;entryDy=0;entryPerimeter=0;dashed=1;strokeColor=#FF0000;strokeWidth=2;fontSize=20;fontStyle=1" parent="1" source="269" target="270" edge="1">
                    <mxGeometry relative="1" as="geometry">
                        <Array as="points">
                            <mxPoint x="1687" y="395.09000000000003"/>
                            <mxPoint x="1507" y="395.09000000000003"/>
                            <mxPoint x="1507" y="438.0899999999999"/>
                        </Array>
                    </mxGeometry>
                </mxCell>
                <mxCell id="281" style="edgeStyle=orthogonalEdgeStyle;rounded=0;orthogonalLoop=1;jettySize=auto;html=1;entryX=0.492;entryY=0.25;entryDx=0;entryDy=0;entryPerimeter=0;dashed=1;strokeColor=#FF0000;strokeWidth=2;fontSize=20;fontStyle=1" parent="1" source="272" target="249" edge="1">
                    <mxGeometry relative="1" as="geometry"/>
                </mxCell>
                <mxCell id="283" style="edgeStyle=orthogonalEdgeStyle;rounded=0;orthogonalLoop=1;jettySize=auto;html=1;entryX=0;entryY=0.5;entryDx=0;entryDy=0;exitX=0.73;exitY=0.212;exitDx=0;exitDy=0;exitPerimeter=0;dashed=1;endSize=6;curved=0;strokeColor=#FF0000;strokeWidth=2;fontSize=20;fontStyle=1" parent="1" source="311" target="196" edge="1">
                    <mxGeometry relative="1" as="geometry">
                        <Array as="points">
                            <mxPoint x="330" y="420.0899999999999"/>
                            <mxPoint x="367" y="420.0899999999999"/>
                        </Array>
                        <mxPoint x="366.5500000000002" y="506.4749999999999" as="sourcePoint"/>
                    </mxGeometry>
                </mxCell>
                <mxCell id="287" style="edgeStyle=orthogonalEdgeStyle;rounded=0;orthogonalLoop=1;jettySize=auto;html=1;entryX=1.031;entryY=0.797;entryDx=0;entryDy=0;entryPerimeter=0;endSize=6;curved=0;strokeWidth=2;fontSize=20;fontStyle=1" parent="1" source="186" target="311" edge="1">
                    <mxGeometry relative="1" as="geometry">
                        <mxPoint x="388.3000000000002" y="514.6649999999997" as="targetPoint"/>
                    </mxGeometry>
                </mxCell>
                <mxCell id="288" value="" style="endArrow=classic;html=1;rounded=0;endSize=6;curved=0;strokeWidth=2;entryX=1.059;entryY=0.556;entryDx=0;entryDy=0;entryPerimeter=0;fontSize=20;fontStyle=1" parent="1" target="186" edge="1">
                    <mxGeometry width="50" height="50" relative="1" as="geometry">
                        <mxPoint x="490" y="476.0899999999999" as="sourcePoint"/>
                        <mxPoint x="457" y="467.0899999999999" as="targetPoint"/>
                    </mxGeometry>
                </mxCell>
                <mxCell id="291" style="edgeStyle=orthogonalEdgeStyle;rounded=0;orthogonalLoop=1;jettySize=auto;html=1;dashed=1;endSize=6;curved=0;strokeColor=#FF0000;strokeWidth=2;fontSize=20;fontStyle=1" parent="1" source="201" target="252" edge="1">
                    <mxGeometry relative="1" as="geometry"/>
                </mxCell>
                <mxCell id="297" value="" style="endArrow=classic;html=1;rounded=0;exitX=0.45;exitY=0;exitDx=0;exitDy=0;exitPerimeter=0;endSize=6;curved=0;strokeWidth=2;fontSize=20;fontStyle=1" parent="1" source="223" edge="1">
                    <mxGeometry width="50" height="50" relative="1" as="geometry">
                        <mxPoint x="1105" y="697.09" as="sourcePoint"/>
                        <mxPoint x="1000" y="668" as="targetPoint"/>
                        <Array as="points">
                            <mxPoint x="1117" y="667.0899999999999"/>
                        </Array>
                    </mxGeometry>
                </mxCell>
                <mxCell id="299" style="edgeStyle=orthogonalEdgeStyle;rounded=0;orthogonalLoop=1;jettySize=auto;html=1;entryX=0;entryY=0.682;entryDx=0;entryDy=0;entryPerimeter=0;exitX=0.876;exitY=0.5;exitDx=0;exitDy=0;exitPerimeter=0;endSize=6;curved=0;strokeWidth=2;fontSize=20;fontStyle=1" parent="1" target="223" edge="1">
                    <mxGeometry relative="1" as="geometry">
                        <mxPoint x="1055" y="865.0900000000001" as="targetPoint"/>
                        <mxPoint x="1029.56" y="737.09" as="sourcePoint"/>
                        <Array as="points">
                            <mxPoint x="1030" y="736.09"/>
                        </Array>
                    </mxGeometry>
                </mxCell>
                <mxCell id="300" style="edgeStyle=orthogonalEdgeStyle;rounded=0;orthogonalLoop=1;jettySize=auto;html=1;entryX=0.124;entryY=0.5;entryDx=0;entryDy=0;entryPerimeter=0;endSize=6;curved=0;strokeWidth=2;fontSize=20;fontStyle=1" parent="1" source="215" edge="1">
                    <mxGeometry relative="1" as="geometry">
                        <mxPoint x="984.44" y="737.09" as="targetPoint"/>
                        <Array as="points">
                            <mxPoint x="960" y="737.09"/>
                        </Array>
                    </mxGeometry>
                </mxCell>
                <mxCell id="301" style="edgeStyle=orthogonalEdgeStyle;rounded=0;orthogonalLoop=1;jettySize=auto;html=1;dashed=1;endSize=6;curved=0;strokeColor=#FF0000;strokeWidth=2;entryX=0.491;entryY=0.708;entryDx=0;entryDy=0;entryPerimeter=0;fontSize=20;fontStyle=1" parent="1" source="237" target="238" edge="1">
                    <mxGeometry relative="1" as="geometry">
                        <mxPoint x="1037" y="695.09" as="targetPoint"/>
                    </mxGeometry>
                </mxCell>
                <mxCell id="308" value="&lt;font style=&quot;font-size: 20px;&quot;&gt;LC&lt;/font&gt;" style="ellipse;whiteSpace=wrap;html=1;fontSize=20;fontStyle=1" parent="1" vertex="1">
                    <mxGeometry x="1290" y="635.0899999999999" width="40" height="40" as="geometry"/>
                </mxCell>
                <mxCell id="471" style="edgeStyle=orthogonalEdgeStyle;rounded=0;html=1;entryX=0.5;entryY=0;entryDx=0;entryDy=0;dashed=1;strokeColor=#FF0000;strokeWidth=2;fontSize=20;fontColor=#FF8000;elbow=vertical;exitX=0.9;exitY=0.407;exitDx=0;exitDy=0;exitPerimeter=0;fontStyle=1" edge="1" parent="1" source="311" target="457">
                    <mxGeometry relative="1" as="geometry">
                        <Array as="points">
                            <mxPoint x="352" y="500.0899999999999"/>
                            <mxPoint x="440" y="500.0899999999999"/>
                            <mxPoint x="440" y="584.0899999999999"/>
                            <mxPoint x="420" y="584.0899999999999"/>
                        </Array>
                    </mxGeometry>
                </mxCell>
                <mxCell id="477" style="edgeStyle=orthogonalEdgeStyle;rounded=0;html=1;entryX=0.5;entryY=1;entryDx=0;entryDy=0;dashed=1;strokeColor=#FF0000;strokeWidth=2;fontSize=20;fontColor=#FF8000;elbow=vertical;exitX=0.304;exitY=0.22;exitDx=0;exitDy=0;exitPerimeter=0;fontStyle=1" edge="1" parent="1" source="311" target="476">
                    <mxGeometry relative="1" as="geometry">
                        <Array as="points">
                            <mxPoint x="280" y="453.0899999999999"/>
                        </Array>
                    </mxGeometry>
                </mxCell>
                <mxCell id="311" value="" style="shape=mxgraph.pid.vessels.jacketed_mixing_vessel;html=1;pointerEvents=1;align=center;verticalLabelPosition=bottom;verticalAlign=top;dashed=0;fontSize=20;fontStyle=1" parent="1" vertex="1">
                    <mxGeometry x="235" y="407.0899999999999" width="130" height="210" as="geometry"/>
                </mxCell>
                <mxCell id="408" style="edgeStyle=orthogonalEdgeStyle;rounded=0;html=1;entryX=0.5;entryY=1;entryDx=0;entryDy=0;dashed=1;strokeColor=#FF0000;strokeWidth=2;fontSize=20;fontColor=#E8E8E8;fontStyle=1" edge="1" parent="1" source="312" target="407">
                    <mxGeometry relative="1" as="geometry">
                        <Array as="points">
                            <mxPoint x="767" y="575.0899999999999"/>
                        </Array>
                    </mxGeometry>
                </mxCell>
                <mxCell id="467" style="edgeStyle=orthogonalEdgeStyle;rounded=0;html=1;entryX=0.5;entryY=0;entryDx=0;entryDy=0;dashed=1;strokeColor=#FF0000;strokeWidth=2;fontSize=20;fontColor=#FF8000;elbow=vertical;exitX=0.08;exitY=0.46;exitDx=0;exitDy=0;exitPerimeter=0;fontStyle=1" edge="1" parent="1" source="312" target="464">
                    <mxGeometry relative="1" as="geometry">
                        <Array as="points">
                            <mxPoint x="627" y="560.0899999999999"/>
                            <mxPoint x="550" y="560.0899999999999"/>
                        </Array>
                    </mxGeometry>
                </mxCell>
                <mxCell id="312" value="" style="shape=mxgraph.pid.vessels.jacketed_mixing_vessel;html=1;pointerEvents=1;align=center;verticalLabelPosition=bottom;verticalAlign=top;dashed=0;fontSize=20;fontStyle=1" parent="1" vertex="1">
                    <mxGeometry x="617" y="465.0899999999999" width="130" height="210" as="geometry"/>
                </mxCell>
                <mxCell id="314" style="edgeStyle=orthogonalEdgeStyle;rounded=0;orthogonalLoop=1;jettySize=auto;html=1;entryX=0;entryY=0.75;entryDx=0;entryDy=0;strokeWidth=2;fontSize=20;fontStyle=1" parent="1" edge="1">
                    <mxGeometry relative="1" as="geometry">
                        <Array as="points">
                            <mxPoint x="185" y="237.06000000000006"/>
                        </Array>
                        <mxPoint x="155" y="237.09448275862076" as="sourcePoint"/>
                        <mxPoint x="184.99999999999955" y="327.06000000000006" as="targetPoint"/>
                    </mxGeometry>
                </mxCell>
                <mxCell id="315" value="" style="endArrow=classic;html=1;rounded=0;entryX=-0.1;entryY=0.643;entryDx=0;entryDy=0;entryPerimeter=0;strokeWidth=2;startArrow=none;fontSize=20;fontStyle=1" parent="1" edge="1" source="543">
                    <mxGeometry width="50" height="50" relative="1" as="geometry">
                        <mxPoint x="20" y="587.0899999999999" as="sourcePoint"/>
                        <mxPoint x="125" y="586.7700000000002" as="targetPoint"/>
                    </mxGeometry>
                </mxCell>
                <mxCell id="317" style="edgeStyle=orthogonalEdgeStyle;rounded=0;orthogonalLoop=1;jettySize=auto;html=1;entryX=0.078;entryY=0.385;entryDx=0;entryDy=0;entryPerimeter=0;strokeWidth=2;fontSize=20;fontStyle=1" parent="1" edge="1">
                    <mxGeometry relative="1" as="geometry">
                        <mxPoint x="204.99999999999955" y="387.06000000000006" as="sourcePoint"/>
                        <mxPoint x="245.14000000000033" y="487.9100000000001" as="targetPoint"/>
                        <Array as="points">
                            <mxPoint x="205" y="488.05999999999995"/>
                        </Array>
                    </mxGeometry>
                </mxCell>
                <mxCell id="318" style="edgeStyle=orthogonalEdgeStyle;rounded=0;orthogonalLoop=1;jettySize=auto;html=1;entryX=0;entryY=0.25;entryDx=0;entryDy=0;strokeWidth=2;fontSize=20;fontStyle=1" parent="1" edge="1">
                    <mxGeometry relative="1" as="geometry">
                        <mxPoint x="224.99999999999955" y="327.06000000000006" as="targetPoint"/>
                        <Array as="points">
                            <mxPoint x="1397" y="407.05999999999995"/>
                            <mxPoint x="1397" y="175.06"/>
                            <mxPoint x="225" y="175.06"/>
                        </Array>
                        <mxPoint x="1245.0000000000005" y="407.09448275862064" as="sourcePoint"/>
                    </mxGeometry>
                </mxCell>
                <mxCell id="535" value="ETHY recycle" style="edgeLabel;html=1;align=center;verticalAlign=middle;resizable=0;points=[];fontSize=20;fontColor=none;labelBackgroundColor=none;noLabel=1;fontStyle=1" vertex="1" connectable="0" parent="318">
                    <mxGeometry x="0.2787" y="4" relative="1" as="geometry">
                        <mxPoint x="21" y="-9" as="offset"/>
                    </mxGeometry>
                </mxCell>
                <mxCell id="320" style="edgeStyle=orthogonalEdgeStyle;rounded=0;orthogonalLoop=1;jettySize=auto;html=1;entryX=0.098;entryY=0.333;entryDx=0;entryDy=0;entryPerimeter=0;strokeWidth=2;fontSize=20;fontStyle=1" parent="1" edge="1">
                    <mxGeometry relative="1" as="geometry">
                        <mxPoint x="629.7400000000002" y="534.9899999999996" as="targetPoint"/>
                        <mxPoint x="504.99999999999955" y="535.0944827586206" as="sourcePoint"/>
                        <Array as="points">
                            <mxPoint x="537" y="535.06"/>
                            <mxPoint x="537" y="535.06"/>
                        </Array>
                    </mxGeometry>
                </mxCell>
                <mxCell id="321" style="edgeStyle=orthogonalEdgeStyle;rounded=0;orthogonalLoop=1;jettySize=auto;html=1;entryX=0.112;entryY=0.511;entryDx=0;entryDy=0;entryPerimeter=0;strokeWidth=2;startArrow=none;exitX=0.042;exitY=0.545;exitDx=0;exitDy=0;exitPerimeter=0;fontSize=20;fontStyle=1" parent="1" edge="1" source="548">
                    <mxGeometry relative="1" as="geometry">
                        <mxPoint x="631.5600000000004" y="572.3699999999997" as="targetPoint"/>
                        <Array as="points">
                            <mxPoint x="600" y="572"/>
                        </Array>
                        <mxPoint x="1217" y="947.0944827586209" as="sourcePoint"/>
                    </mxGeometry>
                </mxCell>
                <mxCell id="322" value="" style="edgeStyle=orthogonalEdgeStyle;rounded=0;orthogonalLoop=1;jettySize=auto;html=1;exitX=0.929;exitY=0.343;exitDx=0;exitDy=0;exitPerimeter=0;strokeWidth=2;entryX=-0.038;entryY=0.519;entryDx=0;entryDy=0;entryPerimeter=0;fontSize=20;fontStyle=1" parent="1" edge="1" target="222">
                    <mxGeometry relative="1" as="geometry">
                        <mxPoint x="737.77" y="537.0899999999999" as="sourcePoint"/>
                        <mxPoint x="835.0000000000005" y="537.0899999999999" as="targetPoint"/>
                    </mxGeometry>
                </mxCell>
                <mxCell id="323" style="edgeStyle=orthogonalEdgeStyle;rounded=0;orthogonalLoop=1;jettySize=auto;html=1;strokeWidth=2;exitX=1;exitY=0.499;exitDx=0;exitDy=0;exitPerimeter=0;fontSize=20;fontStyle=1" parent="1" edge="1" target="215" source="222">
                    <mxGeometry relative="1" as="geometry">
                        <mxPoint x="865.0000000000005" y="537.0600000000002" as="sourcePoint"/>
                        <mxPoint x="905.0000000000005" y="537.0600000000002" as="targetPoint"/>
                    </mxGeometry>
                </mxCell>
                <mxCell id="325" style="edgeStyle=orthogonalEdgeStyle;rounded=0;orthogonalLoop=1;jettySize=auto;html=1;entryX=0.124;entryY=0.5;entryDx=0;entryDy=0;entryPerimeter=0;strokeWidth=2;fontSize=20;fontStyle=1" parent="1" edge="1" target="259" source="242">
                    <mxGeometry relative="1" as="geometry">
                        <mxPoint x="1420" y="880" as="sourcePoint"/>
                        <Array as="points">
                            <mxPoint x="1420" y="930"/>
                        </Array>
                        <mxPoint x="1454.44" y="903.06" as="targetPoint"/>
                    </mxGeometry>
                </mxCell>
                <mxCell id="326" style="rounded=0;orthogonalLoop=1;jettySize=auto;html=1;entryX=0;entryY=0.682;entryDx=0;entryDy=0;entryPerimeter=0;exitX=0.876;exitY=0.5;exitDx=0;exitDy=0;exitPerimeter=0;strokeWidth=2;fontSize=20;fontStyle=1" parent="1" edge="1" target="256" source="259">
                    <mxGeometry relative="1" as="geometry">
                        <mxPoint x="1537" y="902.1599999999999" as="targetPoint"/>
                        <mxPoint x="1499.56" y="903.06" as="sourcePoint"/>
                    </mxGeometry>
                </mxCell>
                <mxCell id="327" style="edgeStyle=orthogonalEdgeStyle;rounded=0;orthogonalLoop=1;jettySize=auto;html=1;exitX=0.45;exitY=0;exitDx=0;exitDy=0;exitPerimeter=0;strokeWidth=2;fontSize=20;fontStyle=1" parent="1" edge="1" target="242" source="256">
                    <mxGeometry relative="1" as="geometry">
                        <Array as="points">
                            <mxPoint x="1579" y="820"/>
                        </Array>
                        <mxPoint x="1586.4999999999995" y="868.06" as="sourcePoint"/>
                        <mxPoint x="1475.0000000000005" y="815.0944827586209" as="targetPoint"/>
                    </mxGeometry>
                </mxCell>
                <mxCell id="328" style="edgeStyle=orthogonalEdgeStyle;rounded=0;orthogonalLoop=1;jettySize=auto;html=1;entryX=0.993;entryY=0.5;entryDx=0;entryDy=0;entryPerimeter=0;exitX=1;exitY=0;exitDx=0;exitDy=0;exitPerimeter=0;strokeWidth=2;fontSize=20;fontStyle=1" parent="1" edge="1">
                    <mxGeometry relative="1" as="geometry">
                        <mxPoint x="1543.79" y="577.0600000000002" as="targetPoint"/>
                        <mxPoint x="1625.0000000000005" y="567.0600000000002" as="sourcePoint"/>
                        <Array as="points">
                            <mxPoint x="1625" y="577.06"/>
                        </Array>
                    </mxGeometry>
                </mxCell>
                <mxCell id="329" style="edgeStyle=orthogonalEdgeStyle;rounded=0;orthogonalLoop=1;jettySize=auto;html=1;strokeWidth=2;fontSize=20;fontStyle=1" parent="1" edge="1" source="242">
                    <mxGeometry relative="1" as="geometry">
                        <Array as="points">
                            <mxPoint x="1420" y="485"/>
                        </Array>
                        <mxPoint x="1420" y="500" as="sourcePoint"/>
                        <mxPoint x="1464" y="485.0899999999999" as="targetPoint"/>
                    </mxGeometry>
                </mxCell>
                <mxCell id="330" style="edgeStyle=orthogonalEdgeStyle;rounded=0;orthogonalLoop=1;jettySize=auto;html=1;entryX=-0.021;entryY=0.494;entryDx=0;entryDy=0;entryPerimeter=0;strokeWidth=2;exitX=0.876;exitY=0.5;exitDx=0;exitDy=0;exitPerimeter=0;fontSize=20;fontStyle=1" parent="1" edge="1" source="267">
                    <mxGeometry relative="1" as="geometry">
                        <mxPoint x="1517" y="485.09448275862064" as="sourcePoint"/>
                        <mxPoint x="1565.3200000000002" y="484.6999999999996" as="targetPoint"/>
                    </mxGeometry>
                </mxCell>
                <mxCell id="331" style="edgeStyle=orthogonalEdgeStyle;rounded=0;orthogonalLoop=1;jettySize=auto;html=1;strokeWidth=2;fontSize=20;fontStyle=1" parent="1" edge="1">
                    <mxGeometry relative="1" as="geometry">
                        <mxPoint x="1770" y="577.0899999999999" as="targetPoint"/>
                        <mxPoint x="1715" y="577.0600000000002" as="sourcePoint"/>
                    </mxGeometry>
                </mxCell>
                <mxCell id="335" style="edgeStyle=orthogonalEdgeStyle;rounded=0;orthogonalLoop=1;jettySize=auto;html=1;entryX=0.124;entryY=0.5;entryDx=0;entryDy=0;entryPerimeter=0;strokeWidth=2;fontSize=20;fontStyle=1" parent="1" edge="1" source="215">
                    <mxGeometry relative="1" as="geometry">
                        <mxPoint x="1014.44" y="315.06000000000006" as="targetPoint"/>
                        <Array as="points">
                            <mxPoint x="960" y="315"/>
                        </Array>
                        <mxPoint x="960.0344827586209" y="387.06000000000006" as="sourcePoint"/>
                    </mxGeometry>
                </mxCell>
                <mxCell id="347" style="edgeStyle=orthogonalEdgeStyle;rounded=0;orthogonalLoop=1;jettySize=auto;html=1;entryX=1;entryY=0.5;entryDx=0;entryDy=0;dashed=1;endSize=6;curved=0;strokeColor=#FF0000;strokeWidth=2;exitX=0;exitY=0.5;exitDx=0;exitDy=0;fontSize=20;fontStyle=1" parent="1" target="348" edge="1" source="353">
                    <mxGeometry relative="1" as="geometry">
                        <Array as="points">
                            <mxPoint x="1600" y="863"/>
                            <mxPoint x="1600" y="847"/>
                            <mxPoint x="1530" y="847"/>
                        </Array>
                        <mxPoint x="1603" y="868.0900000000001" as="sourcePoint"/>
                    </mxGeometry>
                </mxCell>
                <mxCell id="586" style="edgeStyle=none;rounded=0;html=1;entryX=0.529;entryY=0.806;entryDx=0;entryDy=0;entryPerimeter=0;strokeColor=#FF0000;strokeWidth=2;fontSize=20;fontColor=#000000;dashed=1;" edge="1" parent="1" source="348" target="532">
                    <mxGeometry relative="1" as="geometry"/>
                </mxCell>
                <mxCell id="348" value="&lt;font style=&quot;font-size: 20px;&quot;&gt;FC&lt;/font&gt;" style="ellipse;whiteSpace=wrap;html=1;fontSize=20;fontStyle=1" parent="1" vertex="1">
                    <mxGeometry x="1490" y="827.4300000000001" width="40" height="40" as="geometry"/>
                </mxCell>
                <mxCell id="392" style="edgeStyle=orthogonalEdgeStyle;rounded=0;html=1;entryX=1;entryY=0.5;entryDx=0;entryDy=0;dashed=1;strokeColor=#FF0000;strokeWidth=2;fontSize=20;fontColor=#E8E8E8;fontStyle=1" edge="1" parent="1" source="350" target="352">
                    <mxGeometry relative="1" as="geometry">
                        <Array as="points">
                            <mxPoint x="860" y="477"/>
                            <mxPoint x="860" y="477"/>
                        </Array>
                    </mxGeometry>
                </mxCell>
                <mxCell id="367" style="edgeStyle=orthogonalEdgeStyle;rounded=0;html=1;entryX=0.5;entryY=0;entryDx=0;entryDy=0;dashed=1;strokeColor=#FF0000;strokeWidth=2;fontSize=20;fontColor=#E8E8E8;fontStyle=1" edge="1" parent="1" source="351" target="237">
                    <mxGeometry relative="1" as="geometry"/>
                </mxCell>
                <mxCell id="351" value="&lt;font style=&quot;font-size: 20px;&quot;&gt;LS&lt;/font&gt;" style="whiteSpace=wrap;html=1;fontSize=20;fontStyle=1" vertex="1" parent="1">
                    <mxGeometry x="1217" y="564.0899999999999" width="40" height="30" as="geometry"/>
                </mxCell>
                <mxCell id="410" style="edgeStyle=orthogonalEdgeStyle;rounded=0;html=1;entryX=0.489;entryY=0.083;entryDx=0;entryDy=0;entryPerimeter=0;dashed=1;strokeColor=#FF0000;strokeWidth=2;fontSize=20;fontColor=#E8E8E8;fontStyle=1" edge="1" parent="1" source="352" target="222">
                    <mxGeometry relative="1" as="geometry"/>
                </mxCell>
                <mxCell id="352" value="&lt;font style=&quot;font-size: 20px;&quot;&gt;LS&lt;/font&gt;" style="whiteSpace=wrap;html=1;fontSize=20;fontStyle=1" vertex="1" parent="1">
                    <mxGeometry x="805" y="462.0899999999999" width="40" height="30" as="geometry"/>
                </mxCell>
                <mxCell id="353" value="&lt;font style=&quot;font-size: 20px;&quot;&gt;LS&lt;/font&gt;" style="whiteSpace=wrap;html=1;fontSize=20;fontStyle=1" vertex="1" parent="1">
                    <mxGeometry x="1620" y="848.0900000000001" width="40" height="30" as="geometry"/>
                </mxCell>
                <mxCell id="460" style="edgeStyle=orthogonalEdgeStyle;rounded=0;html=1;entryX=0.476;entryY=0.945;entryDx=0;entryDy=0;entryPerimeter=0;dashed=1;strokeColor=#FF0000;strokeWidth=2;fontSize=20;fontColor=#FF8000;elbow=vertical;fontStyle=1" edge="1" parent="1" source="354" target="182">
                    <mxGeometry relative="1" as="geometry"/>
                </mxCell>
                <mxCell id="354" value="&lt;font style=&quot;font-size: 20px;&quot;&gt;LS&lt;/font&gt;" style="whiteSpace=wrap;html=1;fontSize=20;fontStyle=1" vertex="1" parent="1">
                    <mxGeometry x="470" y="589.0899999999999" width="40" height="30" as="geometry"/>
                </mxCell>
                <mxCell id="478" style="edgeStyle=orthogonalEdgeStyle;rounded=0;html=1;entryX=0.49;entryY=0.902;entryDx=0;entryDy=0;entryPerimeter=0;dashed=1;strokeColor=#FF0000;strokeWidth=2;fontSize=20;fontColor=#FF8000;elbow=vertical;fontStyle=1" edge="1" parent="1" source="355" target="176">
                    <mxGeometry relative="1" as="geometry">
                        <Array as="points">
                            <mxPoint x="140" y="260"/>
                            <mxPoint x="140" y="260"/>
                        </Array>
                    </mxGeometry>
                </mxCell>
                <mxCell id="355" value="&lt;font style=&quot;font-size: 20px;&quot;&gt;LS&lt;/font&gt;" style="whiteSpace=wrap;html=1;fontSize=20;fontStyle=1" vertex="1" parent="1">
                    <mxGeometry x="120" y="275.09000000000003" width="40" height="30" as="geometry"/>
                </mxCell>
                <mxCell id="485" style="edgeStyle=orthogonalEdgeStyle;rounded=0;html=1;entryX=0.5;entryY=1;entryDx=0;entryDy=0;dashed=1;strokeColor=#FF0000;strokeWidth=2;fontSize=20;fontColor=#FF8000;elbow=vertical;fontStyle=1" edge="1" parent="1" source="356" target="482">
                    <mxGeometry relative="1" as="geometry"/>
                </mxCell>
                <mxCell id="356" value="&lt;font style=&quot;font-size: 20px;&quot;&gt;LS&lt;/font&gt;" style="whiteSpace=wrap;html=1;fontSize=20;fontStyle=1" vertex="1" parent="1">
                    <mxGeometry x="120" y="722.09" width="40" height="30" as="geometry"/>
                </mxCell>
                <mxCell id="359" style="edgeStyle=orthogonalEdgeStyle;html=1;entryX=0;entryY=0.5;entryDx=0;entryDy=0;fontSize=20;rounded=0;fillColor=#a20025;strokeColor=#FF0000;strokeWidth=2;dashed=1;fontStyle=1" edge="1" parent="1" source="357" target="235">
                    <mxGeometry relative="1" as="geometry">
                        <Array as="points">
                            <mxPoint x="980" y="355.09000000000003"/>
                        </Array>
                    </mxGeometry>
                </mxCell>
                <mxCell id="357" value="&lt;font style=&quot;font-size: 20px;&quot;&gt;LS&lt;/font&gt;" style="whiteSpace=wrap;html=1;fontSize=20;fontStyle=1" vertex="1" parent="1">
                    <mxGeometry x="960" y="252.09000000000003" width="40" height="30" as="geometry"/>
                </mxCell>
                <mxCell id="361" style="edgeStyle=orthogonalEdgeStyle;rounded=0;html=1;entryX=0;entryY=0.5;entryDx=0;entryDy=0;fontSize=20;fillColor=#a20025;strokeColor=#FF0000;strokeWidth=2;dashed=1;fontStyle=1" edge="1" parent="1" source="360" target="357">
                    <mxGeometry relative="1" as="geometry"/>
                </mxCell>
                <mxCell id="360" value="&lt;font style=&quot;font-size: 20px;&quot;&gt;X&lt;/font&gt;" style="ellipse;whiteSpace=wrap;html=1;fontSize=20;fontStyle=1" vertex="1" parent="1">
                    <mxGeometry x="860" y="247.09000000000003" width="40" height="40" as="geometry"/>
                </mxCell>
                <mxCell id="364" style="edgeStyle=orthogonalEdgeStyle;rounded=0;html=1;entryX=0;entryY=0.5;entryDx=0;entryDy=0;dashed=1;strokeColor=#FF0000;strokeWidth=2;fontSize=20;fontStyle=1" edge="1" parent="1" source="363" target="360">
                    <mxGeometry relative="1" as="geometry"/>
                </mxCell>
                <mxCell id="363" value="&lt;font style=&quot;font-size: 20px;&quot;&gt;$$\left[\frac{L_1}{F_{col1}}\right]_{SP}$$&lt;/font&gt;" style="fontSize=20;strokeColor=none;fillColor=#18141D;labelBorderColor=none;fontColor=#000000;labelBackgroundColor=#FFFFFF;whiteSpace=wrap;html=1;fontStyle=1" vertex="1" parent="1">
                    <mxGeometry x="747" y="245.64000000000001" width="80" height="42.91" as="geometry"/>
                </mxCell>
                <mxCell id="381" style="edgeStyle=orthogonalEdgeStyle;rounded=0;html=1;entryX=0.5;entryY=0;entryDx=0;entryDy=0;dashed=1;strokeColor=#FF0000;strokeWidth=2;fontSize=20;fontColor=#E8E8E8;fontStyle=1" edge="1" parent="1" source="366" target="351">
                    <mxGeometry relative="1" as="geometry"/>
                </mxCell>
                <mxCell id="426" style="edgeStyle=orthogonalEdgeStyle;rounded=0;html=1;entryX=0.5;entryY=1;entryDx=0;entryDy=0;dashed=1;strokeColor=#FF0000;strokeWidth=2;fontSize=20;fontColor=#E8E8E8;fontStyle=1" edge="1" parent="1" source="366" target="425">
                    <mxGeometry relative="1" as="geometry">
                        <Array as="points">
                            <mxPoint x="1282" y="527.0899999999999"/>
                        </Array>
                    </mxGeometry>
                </mxCell>
                <mxCell id="366" value="&lt;font style=&quot;font-size: 20px;&quot;&gt;TC&lt;/font&gt;" style="ellipse;whiteSpace=wrap;html=1;fontSize=20;fontStyle=1" vertex="1" parent="1">
                    <mxGeometry x="1217" y="507.0899999999999" width="40" height="40" as="geometry"/>
                </mxCell>
                <mxCell id="375" style="edgeStyle=orthogonalEdgeStyle;rounded=0;html=1;entryX=0.533;entryY=0.9;entryDx=0;entryDy=0;entryPerimeter=0;dashed=1;strokeColor=#FF0000;strokeWidth=2;fontSize=20;fontColor=#E8E8E8;fontStyle=1" edge="1" parent="1" source="370" target="248">
                    <mxGeometry relative="1" as="geometry"/>
                </mxCell>
                <mxCell id="398" style="edgeStyle=orthogonalEdgeStyle;rounded=0;html=1;entryX=1;entryY=0.5;entryDx=0;entryDy=0;dashed=1;strokeColor=#FF0000;strokeWidth=2;fontSize=20;fontColor=#E8E8E8;fontStyle=1" edge="1" parent="1" source="395" target="366">
                    <mxGeometry relative="1" as="geometry">
                        <Array as="points">
                            <mxPoint x="1500" y="722.09"/>
                            <mxPoint x="1500" y="625.0899999999999"/>
                            <mxPoint x="1340" y="625.0899999999999"/>
                            <mxPoint x="1340" y="527.0899999999999"/>
                        </Array>
                    </mxGeometry>
                </mxCell>
                <mxCell id="411" style="edgeStyle=orthogonalEdgeStyle;rounded=0;html=1;entryX=0.5;entryY=0;entryDx=0;entryDy=0;dashed=1;strokeColor=#FF0000;strokeWidth=2;fontSize=20;fontColor=#E8E8E8;fontStyle=1" edge="1" parent="1" source="405" target="407">
                    <mxGeometry relative="1" as="geometry"/>
                </mxCell>
                <mxCell id="405" value="$$U_2^{MAX}-\Delta$$" style="fontSize=20;strokeColor=none;labelBackgroundColor=#FFFFFF;fontColor=#000000;labelBorderColor=none;whiteSpace=wrap;html=1;fontStyle=1" vertex="1" parent="1">
                    <mxGeometry x="737" y="377.09000000000003" width="60" height="20" as="geometry"/>
                </mxCell>
                <mxCell id="409" style="edgeStyle=orthogonalEdgeStyle;rounded=0;html=1;dashed=1;strokeColor=#FF0000;strokeWidth=2;fontSize=20;fontColor=#E8E8E8;fontStyle=1" edge="1" parent="1" source="407" target="352">
                    <mxGeometry relative="1" as="geometry"/>
                </mxCell>
                <mxCell id="407" value="&lt;font style=&quot;font-size: 20px;&quot;&gt;LC&lt;/font&gt;" style="ellipse;whiteSpace=wrap;html=1;fontSize=20;fontStyle=1" vertex="1" parent="1">
                    <mxGeometry x="747" y="457.0899999999999" width="40" height="40" as="geometry"/>
                </mxCell>
                <mxCell id="434" style="edgeStyle=orthogonalEdgeStyle;rounded=0;html=1;entryX=0.5;entryY=1;entryDx=0;entryDy=0;dashed=1;strokeColor=#FF0000;strokeWidth=2;fontSize=20;fontColor=#E8E8E8;fontStyle=1" edge="1" parent="1" source="413" target="370">
                    <mxGeometry relative="1" as="geometry"/>
                </mxCell>
                <mxCell id="413" value="$$0.1\%-x_{Bz}^{D_2,SP}$$" style="fontSize=20;strokeColor=none;labelBackgroundColor=#FFFFFF;fontColor=#000000;labelBorderColor=none;whiteSpace=wrap;html=1;fontStyle=1" vertex="1" parent="1">
                    <mxGeometry x="1530" y="657.0899999999999" width="100" height="20" as="geometry"/>
                </mxCell>
                <mxCell id="415" value="" style="edgeStyle=orthogonalEdgeStyle;rounded=0;html=1;dashed=1;strokeColor=#FF0000;strokeWidth=2;fontSize=20;fontColor=#E8E8E8;entryX=0;entryY=0.5;entryDx=0;entryDy=0;fontStyle=1" edge="1" parent="1" source="414" target="351">
                    <mxGeometry relative="1" as="geometry">
                        <mxPoint x="1130" y="575.0899999999999" as="targetPoint"/>
                    </mxGeometry>
                </mxCell>
                <mxCell id="414" value="$$V_1^{MAX}$$" style="fontSize=20;strokeColor=none;labelBackgroundColor=#FFFFFF;fontColor=#000000;labelBorderColor=none;whiteSpace=wrap;html=1;fontStyle=1" vertex="1" parent="1">
                    <mxGeometry x="1142" y="569.0899999999999" width="40" height="20" as="geometry"/>
                </mxCell>
                <mxCell id="437" style="edgeStyle=orthogonalEdgeStyle;rounded=0;html=1;entryX=0.5;entryY=1;entryDx=0;entryDy=0;dashed=1;strokeColor=#FF0000;strokeWidth=2;fontSize=20;fontColor=#E8E8E8;fontStyle=1" edge="1" parent="1" source="436" target="395">
                    <mxGeometry relative="1" as="geometry"/>
                </mxCell>
                <mxCell id="436" value="$$x_{Bz}^{D_2,SP}$$" style="fontSize=20;strokeColor=none;labelBackgroundColor=#FFFFFF;fontColor=#000000;labelBorderColor=none;whiteSpace=wrap;html=1;fontStyle=1" vertex="1" parent="1">
                    <mxGeometry x="1685" y="767.09" width="50" height="20" as="geometry"/>
                </mxCell>
                <mxCell id="450" style="edgeStyle=orthogonalEdgeStyle;rounded=0;html=1;entryX=0.5;entryY=0;entryDx=0;entryDy=0;dashed=1;strokeColor=#FF0000;strokeWidth=2;fontSize=20;fontColor=#FF8000;fontStyle=1" edge="1" parent="1" source="449" target="357">
                    <mxGeometry relative="1" as="geometry"/>
                </mxCell>
                <mxCell id="449" value="&lt;font style=&quot;font-size: 20px;&quot;&gt;$$L_1^{MAX}$$&lt;/font&gt;" style="fontSize=20;strokeColor=none;labelBackgroundColor=#FFFFFF;fontColor=#000000;labelBorderColor=none;whiteSpace=wrap;html=1;fontStyle=1" vertex="1" parent="1">
                    <mxGeometry x="960" y="207.09000000000003" width="40" height="20" as="geometry"/>
                </mxCell>
                <mxCell id="472" style="edgeStyle=orthogonalEdgeStyle;rounded=0;html=1;entryX=0.5;entryY=1;entryDx=0;entryDy=0;dashed=1;strokeColor=#FF0000;strokeWidth=2;fontSize=20;fontColor=#FF8000;elbow=vertical;fontStyle=1" edge="1" parent="1" source="455" target="457">
                    <mxGeometry relative="1" as="geometry"/>
                </mxCell>
                <mxCell id="455" value="&lt;font style=&quot;font-size: 20px;&quot;&gt;$$U_1^{MAX}-\Delta$$&lt;/font&gt;" style="fontSize=20;strokeColor=none;strokeWidth=2;fontStyle=1;labelBackgroundColor=#FFFFFF;fontColor=#000000;labelBorderColor=none;whiteSpace=wrap;html=1;" vertex="1" parent="1">
                    <mxGeometry x="375" y="702.09" width="90" height="32.91" as="geometry"/>
                </mxCell>
                <mxCell id="473" style="edgeStyle=orthogonalEdgeStyle;rounded=0;html=1;entryX=0;entryY=0.5;entryDx=0;entryDy=0;dashed=1;strokeColor=#FF0000;strokeWidth=2;fontSize=20;fontColor=#FF8000;elbow=vertical;fontStyle=1" edge="1" parent="1" source="457" target="354">
                    <mxGeometry relative="1" as="geometry"/>
                </mxCell>
                <mxCell id="457" value="&lt;font style=&quot;font-size: 20px;&quot;&gt;LC&lt;/font&gt;" style="ellipse;whiteSpace=wrap;html=1;fontSize=20;fontStyle=1" vertex="1" parent="1">
                    <mxGeometry x="400" y="615.0899999999999" width="40" height="40" as="geometry"/>
                </mxCell>
                <mxCell id="459" style="edgeStyle=orthogonalEdgeStyle;rounded=0;html=1;entryX=0.5;entryY=0;entryDx=0;entryDy=0;strokeColor=#FF0000;strokeWidth=2;fontSize=20;fontColor=#FF8000;elbow=vertical;dashed=1;fontStyle=1" edge="1" parent="1" source="458" target="196">
                    <mxGeometry relative="1" as="geometry"/>
                </mxCell>
                <mxCell id="458" value="$$T_{Rx1}^{MAX}$$" style="fontSize=20;strokeColor=none;labelBackgroundColor=#FFFFFF;fontColor=#000000;labelBorderColor=none;whiteSpace=wrap;html=1;fontStyle=1" vertex="1" parent="1">
                    <mxGeometry x="365" y="347.09000000000003" width="40" height="40" as="geometry"/>
                </mxCell>
                <mxCell id="466" style="edgeStyle=orthogonalEdgeStyle;rounded=0;html=1;entryX=1;entryY=0.5;entryDx=0;entryDy=0;dashed=1;strokeColor=#FF0000;strokeWidth=2;fontSize=20;fontColor=#FF8000;elbow=vertical;fontStyle=1" edge="1" parent="1" source="464" target="354">
                    <mxGeometry relative="1" as="geometry"/>
                </mxCell>
                <mxCell id="464" value="&lt;font style=&quot;font-size: 20px;&quot;&gt;OLC&lt;/font&gt;" style="ellipse;whiteSpace=wrap;html=1;fontSize=20;fontStyle=1" vertex="1" parent="1">
                    <mxGeometry x="530" y="584.0899999999999" width="45" height="45" as="geometry"/>
                </mxCell>
                <mxCell id="470" style="edgeStyle=orthogonalEdgeStyle;rounded=0;html=1;entryX=0.5;entryY=1;entryDx=0;entryDy=0;dashed=1;strokeColor=#FF0000;strokeWidth=2;fontSize=20;fontColor=#FF8000;elbow=vertical;fontStyle=1" edge="1" parent="1" source="469" target="464">
                    <mxGeometry relative="1" as="geometry"/>
                </mxCell>
                <mxCell id="469" value="&lt;font style=&quot;font-size: 20px;&quot;&gt;$$U_{2}^{MAX}-\Delta$$&lt;/font&gt;" style="fontSize=20;strokeColor=none;labelBackgroundColor=#FFFFFF;fontColor=#000000;labelBorderColor=none;whiteSpace=wrap;html=1;fontStyle=1" vertex="1" parent="1">
                    <mxGeometry x="532.5" y="677.0899999999999" width="40" height="40" as="geometry"/>
                </mxCell>
                <mxCell id="479" style="edgeStyle=orthogonalEdgeStyle;rounded=0;html=1;entryX=1;entryY=0.5;entryDx=0;entryDy=0;dashed=1;strokeColor=#FF0000;strokeWidth=2;fontSize=20;fontColor=#FF8000;elbow=vertical;fontStyle=1" edge="1" parent="1" source="476" target="355">
                    <mxGeometry relative="1" as="geometry"/>
                </mxCell>
                <mxCell id="476" value="&lt;font style=&quot;font-size: 20px;&quot;&gt;OLC&lt;/font&gt;" style="ellipse;whiteSpace=wrap;html=1;fontSize=20;fontStyle=1" vertex="1" parent="1">
                    <mxGeometry x="260" y="267.59000000000003" width="45" height="45" as="geometry"/>
                </mxCell>
                <mxCell id="481" style="edgeStyle=orthogonalEdgeStyle;rounded=0;html=1;entryX=0;entryY=0.5;entryDx=0;entryDy=0;dashed=1;strokeColor=#FF0000;strokeWidth=2;fontSize=20;fontColor=#FF8000;elbow=vertical;fontStyle=1" edge="1" parent="1" source="480" target="355">
                    <mxGeometry relative="1" as="geometry">
                        <Array as="points">
                            <mxPoint x="70" y="290.09000000000003"/>
                        </Array>
                    </mxGeometry>
                </mxCell>
                <mxCell id="480" value="&lt;font style=&quot;font-size: 20px;&quot;&gt;X&lt;/font&gt;" style="ellipse;whiteSpace=wrap;html=1;fontSize=20;fontStyle=1" vertex="1" parent="1">
                    <mxGeometry x="50" y="380.09000000000003" width="40" height="40" as="geometry"/>
                </mxCell>
                <mxCell id="483" style="edgeStyle=orthogonalEdgeStyle;rounded=0;html=1;dashed=1;strokeColor=#FF0000;strokeWidth=2;fontSize=20;fontColor=#FF8000;elbow=vertical;entryX=0.51;entryY=0.829;entryDx=0;entryDy=0;entryPerimeter=0;fontStyle=1" edge="1" parent="1" source="482" target="179">
                    <mxGeometry relative="1" as="geometry">
                        <mxPoint x="140" y="600.0899999999999" as="targetPoint"/>
                    </mxGeometry>
                </mxCell>
                <mxCell id="484" style="edgeStyle=orthogonalEdgeStyle;rounded=0;html=1;entryX=1;entryY=0.5;entryDx=0;entryDy=0;dashed=1;strokeColor=#FF0000;strokeWidth=2;fontSize=20;fontColor=#FF8000;elbow=vertical;fontStyle=1" edge="1" parent="1" source="482" target="480">
                    <mxGeometry relative="1" as="geometry"/>
                </mxCell>
                <mxCell id="482" value="&lt;font style=&quot;font-size: 20px;&quot;&gt;FC&lt;/font&gt;" style="ellipse;whiteSpace=wrap;html=1;fontSize=20;fontStyle=1" vertex="1" parent="1">
                    <mxGeometry x="120" y="647.0899999999999" width="40" height="40" as="geometry"/>
                </mxCell>
                <mxCell id="489" style="edgeStyle=orthogonalEdgeStyle;rounded=0;html=1;entryX=1;entryY=0.5;entryDx=0;entryDy=0;dashed=1;strokeColor=#FF0000;strokeWidth=2;fontSize=20;fontColor=#FF8000;elbow=vertical;fontStyle=1" edge="1" parent="1" target="356">
                    <mxGeometry relative="1" as="geometry">
                        <mxPoint x="195" y="737.0900000000001" as="sourcePoint"/>
                    </mxGeometry>
                </mxCell>
                <mxCell id="492" style="edgeStyle=orthogonalEdgeStyle;rounded=0;html=1;entryX=0.5;entryY=1;entryDx=0;entryDy=0;dashed=1;strokeColor=#FF0000;strokeWidth=2;fontSize=20;fontColor=#FF8000;elbow=vertical;fontStyle=1" edge="1" parent="1" source="490" target="356">
                    <mxGeometry relative="1" as="geometry"/>
                </mxCell>
                <mxCell id="490" value="&lt;font style=&quot;font-size: 20px;&quot;&gt;OFC&lt;/font&gt;" style="ellipse;whiteSpace=wrap;html=1;fontSize=20;fontStyle=1" vertex="1" parent="1">
                    <mxGeometry x="120" y="787.0900000000001" width="45" height="45" as="geometry"/>
                </mxCell>
                <mxCell id="497" style="edgeStyle=orthogonalEdgeStyle;rounded=0;html=1;entryX=0.5;entryY=1;entryDx=0;entryDy=0;dashed=1;strokeColor=#FF0000;strokeWidth=2;fontSize=20;fontColor=#FFFFFF;elbow=vertical;fontStyle=1" edge="1" parent="1" source="494" target="480">
                    <mxGeometry relative="1" as="geometry"/>
                </mxCell>
                <mxCell id="494" value="&lt;font style=&quot;font-size: 20px;&quot;&gt;FC&lt;/font&gt;" style="ellipse;whiteSpace=wrap;html=1;fontSize=20;fontStyle=1" vertex="1" parent="1">
                    <mxGeometry x="50" y="926.8299999999999" width="40" height="40" as="geometry"/>
                </mxCell>
                <mxCell id="523" style="edgeStyle=orthogonalEdgeStyle;rounded=0;html=1;entryX=1;entryY=0.5;entryDx=0;entryDy=0;dashed=1;strokeColor=#FF0000;strokeWidth=2;fontSize=20;fontColor=#FFFFFF;elbow=vertical;fontStyle=1" edge="1" parent="1" source="499" target="504">
                    <mxGeometry relative="1" as="geometry"/>
                </mxCell>
                <mxCell id="574" style="edgeStyle=orthogonalEdgeStyle;rounded=0;html=1;entryX=1;entryY=0.5;entryDx=0;entryDy=0;dashed=1;strokeColor=#FF0000;strokeWidth=2;fontSize=20;fontColor=#FFFFFF;fontStyle=1" edge="1" parent="1" source="499" target="494">
                    <mxGeometry relative="1" as="geometry">
                        <Array as="points">
                            <mxPoint x="220" y="917"/>
                            <mxPoint x="220" y="947"/>
                        </Array>
                    </mxGeometry>
                </mxCell>
                <mxCell id="499" value="&lt;span style=&quot;font-family: SFMono-Regular, Menlo, Monaco, Consolas, &amp;quot;Liberation Mono&amp;quot;, &amp;quot;Courier New&amp;quot;, monospace; text-align: left; font-size: 20px;&quot;&gt;&lt;font style=&quot;font-size: 20px;&quot;&gt;$$B_2^{OPT}$$&lt;/font&gt;&lt;/span&gt;" style="whiteSpace=wrap;html=1;fontSize=20;strokeColor=none;labelBackgroundColor=#FFFFFF;fontColor=#000000;fontStyle=1" vertex="1" parent="1">
                    <mxGeometry x="280" y="906.8299999999999" width="60" height="20" as="geometry"/>
                </mxCell>
                <mxCell id="521" style="edgeStyle=orthogonalEdgeStyle;rounded=0;html=1;entryX=1;entryY=0.5;entryDx=0;entryDy=0;dashed=1;strokeColor=#FF0000;strokeWidth=2;fontSize=20;fontColor=#FFFFFF;elbow=vertical;fontStyle=1" edge="1" parent="1" source="520" target="476">
                    <mxGeometry relative="1" as="geometry"/>
                </mxCell>
                <mxCell id="520" value="$$U_{1}^{MAX}$$" style="fontSize=20;strokeColor=none;labelBackgroundColor=#FFFFFF;fontColor=#000000;labelBorderColor=none;whiteSpace=wrap;html=1;fontStyle=1" vertex="1" parent="1">
                    <mxGeometry x="365" y="270.09000000000003" width="40" height="40" as="geometry"/>
                </mxCell>
                <mxCell id="525" value="" style="edgeStyle=segmentEdgeStyle;endArrow=classic;html=1;curved=0;rounded=0;endSize=8;startSize=8;sourcePerimeterSpacing=0;targetPerimeterSpacing=0;dashed=1;strokeColor=#FF0000;strokeWidth=2;fontSize=20;fontColor=#FFFFFF;elbow=vertical;fontStyle=1;entryX=1;entryY=0.5;entryDx=0;entryDy=0;" edge="1" parent="1" target="490">
                    <mxGeometry width="100" relative="1" as="geometry">
                        <mxPoint x="600" y="810.0900000000001" as="sourcePoint"/>
                        <mxPoint x="210" y="810" as="targetPoint"/>
                        <Array as="points">
                            <mxPoint x="330" y="810"/>
                        </Array>
                    </mxGeometry>
                </mxCell>
                <mxCell id="527" value="" style="edgeStyle=segmentEdgeStyle;endArrow=classic;html=1;curved=0;rounded=0;endSize=8;startSize=8;sourcePerimeterSpacing=0;targetPerimeterSpacing=0;dashed=1;strokeColor=#FF0000;strokeWidth=2;fontSize=20;fontColor=#FFFFFF;elbow=vertical;entryX=0.5;entryY=1;entryDx=0;entryDy=0;fontStyle=1" edge="1" parent="1" target="494">
                    <mxGeometry width="100" relative="1" as="geometry">
                        <mxPoint x="600" y="810.0900000000001" as="sourcePoint"/>
                        <mxPoint x="260" y="1070.0900000000001" as="targetPoint"/>
                        <Array as="points">
                            <mxPoint x="600" y="810.0900000000001"/>
                            <mxPoint x="380" y="810.0900000000001"/>
                            <mxPoint x="380" y="990.0900000000001"/>
                            <mxPoint x="70" y="990.0900000000001"/>
                        </Array>
                    </mxGeometry>
                </mxCell>
                <mxCell id="531" value="&lt;span style=&quot;font-size: 20px;&quot;&gt;&lt;span style=&quot;font-size: 20px;&quot;&gt;Comment&lt;/span&gt;: SRC&amp;nbsp;&lt;br style=&quot;font-size: 20px;&quot;&gt;&lt;/span&gt;" style="whiteSpace=wrap;html=1;labelBorderColor=none;strokeColor=none;fontSize=20;fontColor=#FF8000;fillColor=none;align=center;verticalAlign=middle;fontStyle=1" vertex="1" parent="1">
                    <mxGeometry x="422" y="867.4300000000001" width="98" height="34.5" as="geometry"/>
                </mxCell>
                <mxCell id="532" value="" style="verticalLabelPosition=bottom;align=center;html=1;verticalAlign=top;pointerEvents=1;dashed=0;shape=mxgraph.pid2valves.valve;valveType=ball;rotation=135;fontSize=20;fontStyle=1" vertex="1" parent="1">
                    <mxGeometry x="1500" y="881.9300000000002" width="30" height="20" as="geometry"/>
                </mxCell>
                <mxCell id="542" value="TPM" style="labelBackgroundColor=#FFFFFF;fontSize=20;fontColor=#000000;fillColor=#18141D;strokeColor=none;labelBorderColor=none;whiteSpace=wrap;html=1;fontStyle=1" vertex="1" parent="1">
                    <mxGeometry x="192.5" y="729.88" width="25" height="14.41" as="geometry"/>
                </mxCell>
                <mxCell id="543" value="ETHY" style="labelBackgroundColor=#FFFFFF;fontSize=20;fontColor=#000000;fillColor=#18141D;strokeColor=none;labelBorderColor=none;whiteSpace=wrap;html=1;fontStyle=1" vertex="1" parent="1">
                    <mxGeometry x="40" y="580" width="20" height="10" as="geometry"/>
                </mxCell>
                <mxCell id="545" value="BENZENE" style="labelBackgroundColor=#FFFFFF;fontSize=20;fontColor=#000000;fillColor=#18141D;strokeColor=none;labelBorderColor=none;whiteSpace=wrap;html=1;fontStyle=1" vertex="1" parent="1">
                    <mxGeometry x="20" y="228.71" width="72.5" height="16.13" as="geometry"/>
                </mxCell>
                <mxCell id="547" value="BENZENE RECYCLE" style="labelBackgroundColor=#FFFFFF;fontSize=20;fontColor=#000000;fillColor=#18141D;strokeColor=none;labelBorderColor=none;whiteSpace=wrap;html=1;fontStyle=1" vertex="1" parent="1">
                    <mxGeometry x="600" y="160" width="50" height="20" as="geometry"/>
                </mxCell>
                <mxCell id="572" style="edgeStyle=orthogonalEdgeStyle;rounded=0;html=1;entryX=0.5;entryY=1;entryDx=0;entryDy=0;strokeColor=#FF0000;strokeWidth=2;fontSize=20;fontColor=#FFFFFF;dashed=1;fontStyle=1" edge="1" parent="1" source="504" target="490">
                    <mxGeometry relative="1" as="geometry"/>
                </mxCell>
                <mxCell id="506" value="$$+70 kmol/hr$$" style="fontSize=20;strokeColor=none;labelBorderColor=none;labelBackgroundColor=#FFFFFF;fontColor=#000000;whiteSpace=wrap;html=1;fontStyle=1" vertex="1" parent="1">
                    <mxGeometry x="120" y="879.24" width="40" height="22.69" as="geometry"/>
                </mxCell>
                <mxCell id="504" value="&lt;span style=&quot;font-family: SFMono-Regular, Menlo, Monaco, Consolas, &amp;quot;Liberation Mono&amp;quot;, &amp;quot;Courier New&amp;quot;, monospace; text-align: left; font-size: 20px;&quot;&gt;&lt;font style=&quot;font-size: 20px;&quot;&gt;$$\Delta y_s$$&lt;/font&gt;&lt;/span&gt;" style="whiteSpace=wrap;html=1;fontSize=20;strokeColor=default;labelBackgroundColor=#FFFFFF;fontColor=#000000;fontStyle=1" vertex="1" parent="1">
                    <mxGeometry x="120" y="848.0892307692308" width="40" height="31.153846153846157" as="geometry"/>
                </mxCell>
                <mxCell id="395" value="&lt;font style=&quot;font-size: 20px;&quot;&gt;CC&lt;/font&gt;" style="ellipse;whiteSpace=wrap;html=1;fontSize=20;fontStyle=1" vertex="1" parent="1">
                    <mxGeometry x="1595" y="702.09" width="40" height="40" as="geometry"/>
                </mxCell>
                <mxCell id="396" value="BENZ" style="text;html=1;align=center;verticalAlign=middle;resizable=0;points=[];autosize=1;strokeColor=none;fillColor=none;fontSize=20;fontColor=#000000;labelBackgroundColor=#FFFFFF;fontStyle=1" vertex="1" parent="1">
                    <mxGeometry x="1614" y="722.09" width="80" height="40" as="geometry"/>
                </mxCell>
                <mxCell id="370" value="&lt;font style=&quot;font-size: 20px;&quot;&gt;CC&lt;/font&gt;" style="ellipse;whiteSpace=wrap;html=1;fontSize=20;fontStyle=1" vertex="1" parent="1">
                    <mxGeometry x="1645" y="594.0899999999999" width="40" height="40" as="geometry"/>
                </mxCell>
                <mxCell id="371" value="DEB" style="text;html=1;align=center;verticalAlign=middle;resizable=0;points=[];autosize=1;strokeColor=none;fillColor=none;fontSize=20;fontColor=#000000;labelBackgroundColor=#FFFFFF;fontStyle=1" vertex="1" parent="1">
                    <mxGeometry x="1660" y="612.0899999999999" width="70" height="40" as="geometry"/>
                </mxCell>
                <mxCell id="566" value="$$T_{Rx1}^{MAX}$$" style="fontSize=20;strokeColor=none;labelBackgroundColor=#FFFFFF;fontColor=#000000;labelBorderColor=none;whiteSpace=wrap;html=1;fontStyle=1" vertex="1" parent="1">
                    <mxGeometry x="365" y="347.09000000000003" width="40" height="40" as="geometry"/>
                </mxCell>
                <mxCell id="444" value="&lt;span style=&quot;font-size: 20px;&quot;&gt;&lt;span style=&quot;font-size: 20px;&quot;&gt;Comment&lt;/span&gt;: SRC with seperate controllers for different setpoints. Anti-windup needed on OTC&lt;br style=&quot;font-size: 20px;&quot;&gt;ref. Skogestad Advanced Control Elements 2023, fig.22&lt;br style=&quot;font-size: 20px;&quot;&gt;&lt;/span&gt;" style="whiteSpace=wrap;html=1;labelBorderColor=none;strokeColor=none;fontSize=20;fontColor=#FF8000;fillColor=none;align=center;verticalAlign=middle;fontStyle=1" vertex="1" parent="1">
                    <mxGeometry x="1410" y="189.39" width="250" height="170.61" as="geometry"/>
                </mxCell>
                <mxCell id="452" style="edgeStyle=orthogonalEdgeStyle;rounded=1;html=1;strokeColor=#FF8000;strokeWidth=2;fontSize=20;fontColor=#FF8000;elbow=vertical;entryX=1;entryY=0.25;entryDx=0;entryDy=0;exitX=0.5;exitY=1;exitDx=0;exitDy=0;fontStyle=1" edge="1" parent="1" source="444" target="445">
                    <mxGeometry relative="1" as="geometry">
                        <mxPoint x="1530" y="360" as="sourcePoint"/>
                        <mxPoint x="1320" y="488.09000000000003" as="targetPoint"/>
                        <Array as="points">
                            <mxPoint x="1492" y="360"/>
                            <mxPoint x="1492" y="430"/>
                            <mxPoint x="1380" y="430"/>
                            <mxPoint x="1380" y="454"/>
                        </Array>
                    </mxGeometry>
                </mxCell>
                <mxCell id="570" style="edgeStyle=orthogonalEdgeStyle;rounded=0;orthogonalLoop=1;jettySize=auto;html=1;strokeWidth=2;fontSize=20;exitX=1;exitY=0.5;exitDx=0;exitDy=0;entryX=0.035;entryY=0.517;entryDx=0;entryDy=0;entryPerimeter=0;fontStyle=1" edge="1" parent="1" source="545" target="176">
                    <mxGeometry relative="1" as="geometry">
                        <Array as="points"/>
                        <mxPoint x="60" y="280" as="sourcePoint"/>
                        <mxPoint x="130" y="237" as="targetPoint"/>
                    </mxGeometry>
                </mxCell>
                <mxCell id="584" value="" style="edgeStyle=orthogonalEdgeStyle;rounded=0;orthogonalLoop=1;jettySize=auto;html=1;entryX=0.112;entryY=0.511;entryDx=0;entryDy=0;entryPerimeter=0;strokeWidth=2;startArrow=none;exitX=0.042;exitY=0.545;exitDx=0;exitDy=0;exitPerimeter=0;fontSize=20;fontStyle=1;endArrow=none;" edge="1" parent="1" source="252" target="548">
                    <mxGeometry relative="1" as="geometry">
                        <mxPoint x="631.5600000000004" y="572.3699999999997" as="targetPoint"/>
                        <Array as="points">
                            <mxPoint x="600" y="971"/>
                        </Array>
                        <mxPoint x="1218.2599999999998" y="970.9000000000001" as="sourcePoint"/>
                    </mxGeometry>
                </mxCell>
                <mxCell id="548" value="DEB&lt;br style=&quot;font-size: 20px;&quot;&gt;RECYCLE" style="labelBackgroundColor=#FFFFFF;fontSize=20;fontColor=#000000;fillColor=#18141D;strokeColor=none;labelBorderColor=none;whiteSpace=wrap;html=1;fontStyle=1" vertex="1" parent="1">
                    <mxGeometry x="843.75" y="955" width="56.25" height="30" as="geometry"/>
                </mxCell>
                <mxCell id="588" style="edgeStyle=none;rounded=0;html=1;entryX=1;entryY=0.5;entryDx=0;entryDy=0;dashed=1;strokeColor=#FF0000;strokeWidth=2;fontSize=20;fontColor=#000000;" edge="1" parent="1" source="587" target="353">
                    <mxGeometry relative="1" as="geometry"/>
                </mxCell>
                <mxCell id="587" value="$$V_2^{MAX}$$" style="fontSize=20;strokeColor=none;labelBackgroundColor=#FFFFFF;fontColor=#000000;labelBorderColor=none;whiteSpace=wrap;html=1;fontStyle=1" vertex="1" parent="1">
                    <mxGeometry x="1690" y="853.67" width="40" height="20" as="geometry"/>
                </mxCell>
                <mxCell id="592" style="edgeStyle=orthogonalEdgeStyle;rounded=0;html=1;entryX=0.5;entryY=0;entryDx=0;entryDy=0;dashed=1;strokeColor=#FF0000;strokeWidth=2;fontSize=20;fontColor=#000000;" edge="1" parent="1" source="590" target="353">
                    <mxGeometry relative="1" as="geometry"/>
                </mxCell>
                <mxCell id="590" value="&lt;font style=&quot;font-size: 20px;&quot;&gt;TC&lt;/font&gt;" style="ellipse;whiteSpace=wrap;html=1;fontSize=20;fontStyle=1" vertex="1" parent="1">
                    <mxGeometry x="1527" y="769.9999999999999" width="40" height="40" as="geometry"/>
                </mxCell>
                <mxCell id="594" style="edgeStyle=orthogonalEdgeStyle;rounded=0;html=1;entryX=0.5;entryY=0;entryDx=0;entryDy=0;dashed=1;strokeColor=#FF0000;strokeWidth=2;fontSize=20;fontColor=#000000;" edge="1" parent="1" source="593" target="590">
                    <mxGeometry relative="1" as="geometry"/>
                </mxCell>
                <mxCell id="593" value="$$T^SP_{col2,s14}$$" style="fontSize=20;strokeColor=none;labelBackgroundColor=#FFFFFF;fontColor=#000000;labelBorderColor=none;whiteSpace=wrap;html=1;fontStyle=1;fillColor=default;" vertex="1" parent="1">
                    <mxGeometry x="1514" y="727.0899999999999" width="60" height="30" as="geometry"/>
                </mxCell>
            </root>
        </mxGraphModel>
    </diagram>
</mxfile>